<svg width="50" height="50" viewBox="0 0 50 50" fill="none" xmlns="http://www.w3.org/2000/svg">
<path fill-rule="evenodd" clip-rule="evenodd" d="M16.7293 46.3925C11.955 45.0718 6.95652 44.4056 2.10765 43.7952C1.06328 43.6673 0.0936464 44.3813 0.0190483 45.3873C-0.130148 46.394 0.61627 47.3147 1.58605 47.4426C6.28572 48.0302 11.1342 48.6589 15.6846 49.9303C16.6544 50.2061 17.6992 49.6384 17.9976 48.6618C18.296 47.686 17.6991 46.669 16.7293 46.3925Z" fill="black"/>
<path fill-rule="evenodd" clip-rule="evenodd" d="M31.2007 29.9836C23.5171 22.2542 14.8637 15.5198 7.32932 7.58303C6.65794 6.84179 5.46437 6.80208 4.71839 7.49405C3.97241 8.18676 3.8981 9.35156 4.64408 10.0928C12.1785 18.0523 20.8319 24.8088 28.5155 32.561C29.2614 33.2846 30.4547 33.2949 31.2007 32.583C31.8721 31.872 31.9467 30.7072 31.2007 29.9836Z" fill="black"/>
<path fill-rule="evenodd" clip-rule="evenodd" d="M45.5992 1.93823C45.823 6.36215 46.0464 10.7861 46.2701 15.2107C46.2701 16.2241 47.1658 17.0065 48.2101 16.9572C49.2545 16.9072 50.0001 16.0446 50.0001 15.0306C49.7763 10.5993 49.5529 6.16875 49.3291 1.73821C49.2545 0.724886 48.3592 -0.0523894 47.3148 0.00276262C46.345 0.0579146 45.5246 0.925642 45.5992 1.93823Z" fill="black"/>
</svg>
