<svg width="41" height="40" viewBox="0 0 41 40" fill="none" xmlns="http://www.w3.org/2000/svg">
<path fill-rule="evenodd" clip-rule="evenodd" d="M3.65357 20.9933C4.92694 15.8245 4.84355 10.8468 4.99616 5.60397C5.02581 4.58007 4.22014 3.72882 3.19762 3.69798C2.17447 3.66714 1.3206 4.47519 1.29032 5.49909C1.14575 10.4706 1.26253 15.2015 0.0540354 20.1113C-0.190629 21.1043 0.417956 22.1097 1.41144 22.3503C2.40431 22.597 3.40952 21.9864 3.65357 20.9933Z" fill="black"/>
<path fill-rule="evenodd" clip-rule="evenodd" d="M14.472 31.0103C23.1106 23.1275 31.2501 12.9871 36.9392 2.74812C37.4353 1.85375 37.1121 0.724941 36.2175 0.231493C35.3229 -0.261954 34.1935 0.0588147 33.6973 0.953188C28.1961 10.853 20.3242 20.6603 11.971 28.2778C11.216 28.9687 11.1635 30.1406 11.8536 30.8931C12.5437 31.6456 13.717 31.7011 14.472 31.0103Z" fill="black"/>
<path fill-rule="evenodd" clip-rule="evenodd" d="M16.6604 39.6209C24.5613 40.9224 32.7051 38.7019 39.8893 35.5624C40.8266 35.1491 41.2541 34.0574 40.8445 33.126C40.4343 32.1884 39.34 31.7628 38.4028 32.1699C31.8599 35.0319 24.46 37.1537 17.264 35.9695C16.2544 35.8029 15.2999 36.4876 15.1337 37.493C14.9669 38.4984 15.6514 39.4544 16.6604 39.6209Z" fill="black"/>
</svg>
