<svg width="117" height="117" viewBox="0 0 117 117" fill="none" xmlns="http://www.w3.org/2000/svg">
<g clip-path="url(#clip0_62_909)">
<path d="M90.347 89.5193C87.4003 91.1189 85.0719 91.5412 83.0211 91.9111C81.1413 92.2538 79.5177 92.5449 77.39 93.6999C75.2623 94.8549 74.1334 96.058 72.8216 97.4478C71.3938 98.9662 69.7708 100.689 66.8241 102.289C58.9888 106.542 50.574 105.677 47.6653 100.315C41.8158 89.5308 44.5716 64.8714 57.8443 57.6663C71.1171 50.4612 93.2857 61.5905 99.1352 72.3744C102.044 77.7368 98.1823 85.2659 90.347 89.5193Z" fill="black"/>
<path d="M42.8511 61.6187C36.6706 64.9738 27.7933 60.1733 22.6492 50.6899C17.5051 41.2065 18.3205 31.1443 24.501 27.7892C30.6814 24.4342 39.5588 29.2347 44.7029 38.7181C49.847 48.2015 49.0315 58.2637 42.8511 61.6187Z" fill="black"/>
<path d="M69.3206 47.2498C63.1401 50.6048 54.2627 45.8043 49.1187 36.3209C43.9746 26.8375 44.7816 16.7799 50.9705 13.4203C57.1593 10.0607 66.0283 14.8657 71.1724 24.3491C76.3164 33.8325 75.501 43.8947 69.3206 47.2498Z" fill="black"/>
<path d="M25.0069 82.3787C18.8453 78.4543 16.4966 72.2304 19.1181 67.9761C21.715 63.757 28.2687 62.8229 34.626 66.6849C40.9351 70.5184 43.0534 76.922 40.5148 81.0875C38.0379 85.165 31.2123 86.3232 25.0069 82.3787Z" fill="black"/>
<path d="M86.9187 55.8972C82.0395 55.7475 77.8319 50.489 78.0579 43.1079C78.2863 35.6709 82.6412 30.6833 87.5926 30.8048C92.5869 30.9249 96.5313 36.2825 96.4535 43.5941C96.3855 50.9441 91.6945 56.0375 86.9187 55.8972Z" fill="black"/>
</g>
<defs>
<clipPath id="clip0_62_909">
<rect width="85.6661" height="85.6661" fill="white" transform="matrix(0.878857 -0.477085 0.476801 0.879011 0.0915527 41.0398)"/>
</clipPath>
</defs>
</svg>
