<svg width="317" height="317" viewBox="0 0 317 317" fill="none" xmlns="http://www.w3.org/2000/svg">
<circle cx="158.5" cy="158.5" r="158.5" fill="white"/>
<g clip-path="url(#clip0_62_572)">
<path d="M179.614 289.323C176.164 292.458 172.663 295.537 169.433 298.906C165.011 303.519 160.982 308.433 157.675 313.995C156.729 313.449 156.022 312.695 155.28 311.976C147.904 304.86 140.528 297.749 133.142 290.643C132.717 290.235 132.251 289.863 131.806 289.476C131.785 289.282 131.683 289.048 131.755 288.895C132.446 287.401 131.724 286.371 130.802 285.224C123.503 276.115 116.296 266.934 108.997 257.82C104.467 252.162 101.222 245.856 99.1691 238.934C97.3212 232.699 96.6251 226.373 97.9099 219.93C98.8108 220.526 98.9131 221.566 99.2817 222.443C100.075 224.314 100.966 226.124 102.215 227.739C105.363 231.828 109.145 235.192 113.67 237.705C116.235 239.132 118.753 240.667 121.568 241.6C122.331 242.252 122.751 243.154 123.268 243.98C126.411 248.961 129.881 253.711 133.413 258.422C137.569 263.968 142.038 269.259 146.573 274.499C147.658 275.758 148.595 277.252 150.325 277.818L150.315 277.802C150.33 278.154 150.484 278.424 150.791 278.603C150.883 278.751 150.98 278.903 151.072 279.051C151.134 279.342 151.282 279.576 151.538 279.734C151.937 280.015 152.158 280.504 152.654 280.657C152.7 282.028 152.628 283.42 152.813 284.776C153.529 290.154 154.312 295.521 155.111 300.889C155.254 301.842 155.28 302.867 155.869 303.983C156.718 302.056 157.425 300.374 158.192 298.718C162.195 290.052 167.877 282.538 174.439 275.677C179.471 270.416 184.769 265.405 189.846 260.185C193.409 256.52 196.9 252.768 199.915 248.629C201.839 245.994 203.964 243.47 205.233 240.412L205.325 240.33L205.248 240.427C204.696 240.366 204.22 240.59 203.749 240.82C195.436 244.857 186.831 248.262 178.457 252.162C176.625 253.018 174.782 253.854 172.939 254.7C172.888 254.644 172.832 254.593 172.781 254.542C174.925 251.723 177.085 248.915 179.215 246.08C184.144 239.515 187.594 232.302 188.858 224.141C188.951 223.529 189.16 222.917 188.72 222.081C186.273 224.972 183.729 227.464 181.175 229.942C180.587 229.36 180.735 228.876 180.74 228.448C180.827 223.6 179.931 218.926 178.283 214.384C177.275 211.611 176.179 208.868 175.166 206.095C174.04 203.016 172.888 199.943 172.433 196.67C173.548 196.736 174.664 196.792 175.78 196.869C180.766 197.221 185.634 196.721 190.24 194.672C191.131 194.274 191.607 194.259 192.078 195.238C194.151 199.55 196.183 203.883 197.57 208.476C198.584 211.825 198.917 215.256 198.676 218.763C198.282 224.472 196.629 229.809 194.049 234.886C193.747 235.483 193.322 236.048 193.245 236.976C198.241 235.478 203.017 234.101 207.731 232.495C208.857 232.113 209.517 231.496 209.681 230.329C209.737 229.942 209.876 229.569 209.973 229.187C211.401 223.565 211.759 217.82 211.959 212.054C212.133 212.401 212.358 212.732 212.471 213.099C214.626 220.165 215.271 227.352 213.761 234.601C212.066 242.742 208.581 250.123 203.365 256.617C195.973 265.813 188.521 274.963 181.022 284.067C179.686 285.688 178.764 287.218 179.609 289.323H179.614Z" fill="#F0AC49"/>
<path d="M269.687 138.145C267.732 139.894 265.812 141.678 263.483 142.947C263.463 142.621 263.381 142.284 263.432 141.973C264.318 136.84 264.2 131.661 264.087 126.487C264.046 124.565 263.77 122.649 263.596 120.691C263.284 120.793 263.115 120.798 263.053 120.88C262.659 121.405 262.275 121.935 261.912 122.475C257.817 128.547 253.123 134.088 247.431 138.747C247.063 139.047 246.75 139.573 246.034 139.251C246.024 138.14 246.372 137.08 246.617 136.009C247.953 130.254 248.911 124.423 249.059 118.53C249.34 106.999 249.218 95.4585 248.639 83.9329C248.501 81.1395 248.609 78.2899 247.917 75.5322C248.629 75.6443 249.34 75.8125 250.057 75.8482C250.687 75.8788 251.531 76.1745 251.91 75.5882C252.335 74.9307 251.577 74.3954 251.214 73.9112C247.395 68.783 242.86 64.3227 237.9 60.3109C231.164 54.8668 223.604 50.7938 215.644 47.4193C215.194 47.2307 214.738 46.8942 214.083 47.2459C214.59 47.8882 215.076 48.4897 215.542 49.1065C219.929 54.9279 223.798 61.0858 227.555 67.3149C228.165 68.3243 228.912 68.9614 230.018 69.4049C232.372 70.3429 234.967 70.817 236.841 72.7387C237.849 73.6716 238.878 74.5789 239.861 75.5373C242.681 78.2747 244.166 81.5575 244.038 85.5335C243.966 87.8172 244.002 90.1111 243.991 92.3948C243.91 94.0005 243.055 95.3208 242.4 96.7175C238.852 104.267 234.297 111.235 229.956 118.331C229.746 118.678 229.526 118.989 229.106 119.091C229.004 103.089 229.158 87.0883 229.04 70.7507C227.34 71.8467 226.844 73.5187 225.477 74.319C224.924 73.9214 224.653 73.3097 224.305 72.7642C222.785 70.3939 221.29 68.0082 219.78 65.6379C214.83 57.8488 209.835 50.0904 204.941 42.2657C203.523 39.9972 201.89 37.8512 200.862 35.3483L201.015 35.226C201.896 35.2718 202.366 35.96 202.976 36.4494C203.989 37.265 204.695 38.4476 205.99 38.9268C206.083 39.0491 206.159 39.0542 206.185 38.937C206.19 38.9064 206.124 38.8605 206.093 38.8197C205.781 37.6014 205.1 36.5513 204.532 35.4451C203.759 33.9363 202.709 32.5803 202.1 30.9848C202.346 31.0664 202.612 31.1173 202.837 31.2397C211.769 36.118 221.254 39.5538 231.159 41.8426C232.357 42.1178 233.125 42.6836 233.821 43.6267C240.833 53.1234 248.076 62.4366 255.959 71.24C259.895 75.6341 263.918 79.9568 268.505 83.7137C269.257 93.9598 269.795 104.226 271.044 114.921C272.549 113.381 273.67 112.194 274.831 111.047C278.102 107.825 281.204 104.43 284.618 101.356C284.675 101.417 284.736 101.474 284.792 101.53C284.792 102.325 284.603 103.084 284.419 103.849C282.09 113.55 277.949 122.516 273.229 131.253C272.144 133.257 270.798 135.133 270.107 137.34L270.143 137.268C269.81 137.462 269.733 137.783 269.697 138.13L269.687 138.145Z" fill="#C86B2E"/>
<path d="M38.0727 135.148C37.5761 134.929 37.2281 134.531 36.8698 134.149C32.2886 129.209 28.3933 123.791 25.2299 117.847C22.215 112.189 21.4779 106.184 22.3328 99.9137C22.6296 100.306 22.5989 100.77 22.6655 101.224C23.2132 104.925 24.0731 108.544 25.4295 112.036C25.5985 112.479 25.6241 113.06 26.1973 113.305C26.8474 112.765 27.1545 112.025 27.564 111.373C32.5087 103.487 37.6325 95.7235 43.6725 88.6073C44.1025 88.0976 44.5324 87.6133 44.5119 86.8946C45.5459 86.5734 46.3342 85.8904 47.0764 85.1563C51.0024 81.2618 55.4915 78.1778 60.518 75.8686C61.0452 75.6239 61.6134 75.4098 61.8591 74.8032L62.5808 74.6809C62.8931 74.6911 63.1695 74.6044 63.4101 74.4005C63.6558 74.3699 63.9015 74.3444 64.1472 74.3138C64.1472 75.16 64.2598 76.0317 64.1113 76.8524C63.5227 80.1556 64.2188 83.3263 65.0276 86.4817C65.2221 87.2463 65.4115 87.9956 65.3808 88.7909C65.304 89.1732 65.2733 89.5708 65.1504 89.9429C63.9117 93.6284 63.2565 97.4465 63.0569 101.29C62.6474 109.13 62.8675 116.965 63.9373 124.764C64.3263 127.603 64.7307 130.463 64.5515 133.354L64.5669 133.338C62.5604 129.561 60.5487 125.789 58.0815 122.282C57.5953 121.593 57.1755 120.849 56.4231 120.401C55.1178 117.638 52.9987 115.502 50.9819 113.269C51.0843 115.191 52.0415 116.746 52.9322 118.306C53.7409 119.718 54.652 121.068 55.5222 122.445C55.4301 123.373 55.0001 124.193 54.6879 125.055C53.2137 129.117 51.7446 133.185 50.6697 137.381C50.465 138.181 50.6185 139.42 49.82 139.654C48.8577 139.929 48.3612 138.731 47.7981 138.079C44.1536 133.848 41.7172 128.934 39.8028 123.734C38.6767 120.671 37.9498 117.495 37.0694 114.335C36.9312 114.962 36.8902 115.578 36.8749 116.195C36.7316 122.552 37.0489 128.883 38.0675 135.168L38.0727 135.148Z" fill="#EC8728"/>
<path d="M38.0726 135.148C37.054 128.863 36.7367 122.531 36.88 116.175C36.8954 115.558 36.9363 114.941 37.0745 114.314C37.9549 117.47 38.6818 120.65 39.8079 123.714C41.7223 128.914 44.1587 133.828 47.8032 138.059C48.3663 138.711 48.8628 139.914 49.8251 139.634C50.6236 139.404 50.4701 138.16 50.6748 137.36C51.7497 133.165 53.2188 129.102 54.693 125.034C55.0052 124.173 55.4301 123.352 55.5222 122.424C56.0955 121.864 56.1979 121.099 56.418 120.385C57.1755 120.834 57.5901 121.578 58.0764 122.266C60.5436 125.773 62.5552 129.546 64.5618 133.323L64.6232 133.394L64.5464 133.338C64.7256 130.448 64.3212 127.588 63.9322 124.749C62.8624 116.95 62.6423 109.115 63.0518 101.275C63.2514 97.4312 63.9066 93.6131 65.1453 89.9276C65.2681 89.5606 65.304 89.163 65.3756 88.7806C66.5324 90.0244 66.86 91.6862 67.592 93.1441C67.8633 97.3394 68.5953 101.468 69.5422 105.557C71.3849 113.514 74.3179 121.084 77.9113 128.404C78.5255 129.653 78.6791 130.789 78.3873 132.15C77.3943 136.83 76.5292 141.535 75.5874 146.22C73.888 154.641 71.9736 163.006 68.8666 171.05C66.9522 175.989 64.3672 180.521 60.6562 184.365C60.2928 184.742 59.8987 185.099 59.786 185.649C58.5985 186.184 57.411 186.715 56.2234 187.25C56.1467 187.183 56.0699 187.112 55.9931 187.046C56.5766 186.179 57.1602 185.318 57.7437 184.451C63.8861 175.271 64.4543 165.799 59.1206 156.089C56.1671 150.711 51.9545 146.418 47.0559 142.764C43.8977 140.408 40.7139 138.084 38.0573 135.143L38.0726 135.148Z" fill="#FCC963"/>
<path d="M108.372 26.9985C115.636 20.805 123.856 16.2529 132.768 12.8987C138.931 10.5793 145.288 9.03478 151.83 8.24466C153.064 8.09683 154.323 8.1529 155.567 8.11212C156.324 8.21407 156.447 8.62697 156.36 9.35592C155.95 12.7356 155.725 16.1305 155.822 19.5408C155.577 20.0404 155.106 20.2901 154.676 20.5909C150.248 23.68 146.189 27.2126 142.371 31.0001C138.598 34.7416 135.117 38.7585 132.097 43.1424C129.64 42.6989 127.127 42.5613 124.655 42.4695C120.058 42.3013 115.472 41.8629 110.86 41.919C108.941 41.9445 107.717 42.4746 106.612 44.0497C102.204 50.335 97.6795 56.5387 93.1905 62.7679C92.8168 63.2878 92.525 63.9301 91.7726 64.0372C91.9005 63.089 92.5199 62.3754 92.9755 61.5853C96.8964 54.8259 100.838 48.0819 104.754 41.3175C105.081 40.7516 105.578 40.2011 105.475 39.3549C103.781 40.1094 102.588 41.4143 101.002 42.077C100.93 42.0056 100.858 41.9343 100.787 41.8629C101.15 41.1696 101.503 40.4713 101.887 39.7933C102.947 37.9174 104.17 36.1333 104.974 34.1248C106.509 31.938 107.318 29.4045 108.378 26.9934L108.372 26.9985Z" fill="#FDDE8A"/>
<path d="M247.912 75.527C248.609 78.2848 248.496 81.1343 248.634 83.9278C249.213 95.4482 249.341 106.989 249.054 118.525C248.911 124.418 247.948 130.249 246.612 136.004C246.367 137.075 246.013 138.135 246.029 139.246C246.745 139.567 247.063 139.037 247.426 138.742C253.118 134.088 257.812 128.541 261.907 122.47C262.275 121.93 262.654 121.395 263.048 120.875C263.11 120.793 263.274 120.793 263.591 120.686C263.765 122.644 264.041 124.56 264.082 126.482C264.195 131.656 264.313 136.835 263.427 141.968C263.371 142.279 263.458 142.616 263.478 142.942C262.593 143.931 261.431 144.583 260.417 145.409C258.682 146.821 256.988 148.269 255.365 149.803C250.82 154.095 248.45 159.432 247.539 165.519C247.14 168.19 246.93 170.871 247.303 173.548C247.856 177.508 249.689 180.863 252.396 183.773C252.228 183.921 252.059 184.074 251.89 184.222C250.149 183.503 248.752 182.336 247.523 180.939C245.066 178.161 243.736 174.837 242.809 171.32C241.289 165.555 240.373 159.662 239.216 153.815C237.742 146.362 236.303 138.905 233.539 131.783C233.201 130.907 233.283 130.157 233.652 129.337C234.937 126.467 236.227 123.597 237.445 120.696C239.707 115.324 242.118 110.002 243.674 104.369C245.148 99.0318 245.87 93.6029 245.456 88.0568C246.019 83.887 246.443 79.707 246.095 75.4914C246.704 75.1294 247.303 75.4506 247.907 75.5168L247.912 75.527Z" fill="#F0AC49"/>
<path d="M155.817 19.5408C155.72 16.1306 155.945 12.7356 156.355 9.35595C156.442 8.627 156.324 8.2141 155.561 8.11215C158.274 7.77571 160.941 8.24469 163.582 8.70346C177.541 11.1044 189.872 17.1807 201.143 25.5304C202.167 26.29 203.191 26.7793 204.393 27.0954C217.206 30.4801 230.007 33.8955 242.814 37.3006C242.937 37.3363 243.055 37.3975 243.336 37.5096C241.918 39.513 240.101 41.1187 238.612 42.9844C238.842 43.7286 239.431 44.1772 239.912 44.7074C246.899 52.3741 253.84 60.0815 260.059 68.3905C262.066 71.0718 263.944 73.8347 265.792 76.623C266.99 78.4225 268.126 80.2678 269.703 81.7817C269.283 82.4189 269.093 83.1938 268.489 83.7188C263.903 79.9619 259.88 75.6443 255.944 71.2451C248.061 62.4417 240.818 53.1285 233.805 43.6318C233.109 42.6887 232.341 42.1229 231.144 41.8476C221.239 39.5589 211.754 36.1231 202.822 31.2448C202.597 31.1224 202.331 31.0715 202.085 30.9899C201.486 30.5872 200.846 30.2406 200.299 29.7767C197.785 27.651 195.031 25.928 192.011 24.5925C184.912 21.4473 177.454 19.9028 169.72 19.5816C168.936 19.551 168.153 19.4899 167.37 19.4185C163.516 19.0617 159.656 18.9495 155.807 19.5357L155.817 19.5408Z" fill="#FCC963"/>
<path d="M108.372 26.9985C107.313 29.4097 106.499 31.9431 104.968 34.13C103.433 34.5939 102.199 35.6134 100.822 36.3678C94.3114 39.931 87.3807 42.3982 80.1429 43.9478C78.1364 44.376 76.6929 45.2324 75.5003 46.8789C73.9237 49.0556 72.1424 51.0895 70.4328 53.1693C62.3914 62.9769 54.1247 72.5909 45.1978 81.6186C43.6519 83.1819 43.425 84.9405 44.517 86.8946C44.5374 87.6133 44.1075 88.1027 43.6775 88.6074C37.6375 95.7235 32.5137 103.487 27.5691 111.373C27.1596 112.031 26.8524 112.765 26.2024 113.305C25.6291 113.06 25.6086 112.479 25.4346 112.036C24.0781 108.544 23.2182 104.919 22.6705 101.224C22.604 100.77 22.6347 100.306 22.3378 99.9137C22.0716 98.4507 22.6705 97.2426 23.4127 96.0498C26.0846 91.7678 29.811 88.6023 34.1005 86.0535C35.677 85.1155 37.3252 84.2846 38.9632 83.4588C39.6235 83.1224 40.1866 82.7707 40.5551 82.0825C44.4914 74.8032 49.9786 68.6964 55.5119 62.6354C60.866 56.7681 66.2816 50.957 71.6613 45.1152C73.1866 43.4585 73.1713 43.4483 71.6869 41.7151C70.6734 40.5376 69.6803 39.3448 68.4467 37.8869C81.96 34.2014 95.1713 30.5974 108.377 26.9985H108.372Z" fill="#FCC963"/>
<path d="M59.7963 185.654C59.9089 185.104 60.303 184.747 60.6664 184.37C64.3775 180.526 66.9675 175.999 68.8768 171.055C71.9889 163.011 73.9033 154.646 75.5976 146.225C76.5445 141.535 77.4045 136.83 78.3975 132.156C78.6841 130.8 78.5357 129.658 77.9215 128.409C74.3282 121.089 71.39 113.519 69.5524 105.562C68.6055 101.474 67.8735 97.3445 67.6022 93.1492C68.109 93.5061 68.3496 94.0566 68.6055 94.5867C72.1937 101.917 76.6367 108.732 81.2742 115.425C81.6376 115.951 81.8987 116.608 82.6511 116.746C82.7381 117.541 83.0504 118.25 83.4189 118.953C85.1746 122.312 86.9047 125.682 87.8261 129.388C87.8722 130.234 87.8824 131.085 87.9694 131.926C88.686 138.854 88.5069 145.72 86.8484 152.53C86.1523 155.395 85.1081 158.138 84.2072 160.926C83.7363 161.497 83.4036 162.139 83.1988 162.853C82.9787 163.256 82.7484 163.653 82.5385 164.061C79.7386 169.556 76.0685 174.389 71.3337 178.375C69.4808 179.935 67.5613 181.423 65.6725 182.947C65.565 183.09 65.4575 183.228 65.35 183.371L65.4012 183.345C64.6129 183.162 64.0755 183.697 63.4612 184.018C62.2737 184.635 61.1425 185.389 59.7911 185.649L59.7963 185.654Z" fill="#A14A31"/>
<path d="M245.466 88.067C245.88 93.6131 245.159 99.042 243.684 104.379C242.123 110.017 239.717 115.339 237.455 120.707C236.232 123.602 234.947 126.477 233.662 129.347C233.294 130.168 233.212 130.917 233.549 131.794C236.314 138.915 237.752 146.373 239.226 153.825C240.378 159.667 241.294 165.56 242.819 171.33C243.746 174.847 245.077 178.171 247.534 180.949C248.767 182.341 250.16 183.513 251.9 184.232C251.9 184.324 251.89 184.416 251.885 184.502C249.346 184.222 247.001 183.35 244.749 182.183C243.551 180.363 241.55 179.491 239.953 178.151C239.282 177.08 238.274 176.316 237.394 175.439C235.571 173.619 234.015 171.59 232.659 169.413C227.591 161.268 225.001 152.362 224.561 142.809C224.551 142.29 224.607 141.754 224.515 141.245C223.88 137.702 224.244 134.184 224.935 130.713C225.534 127.68 226.716 124.815 228.119 122.057C228.6 121.114 229.009 120.161 229.106 119.096C229.526 118.994 229.746 118.678 229.956 118.336C234.292 111.24 238.852 104.272 242.4 96.7226C243.055 95.3259 243.91 94.0056 243.992 92.3999C244.877 91.0899 244.764 89.4433 245.471 88.0721L245.466 88.067Z" fill="#A14A31"/>
<path d="M179.614 289.323C178.769 287.218 179.696 285.683 181.027 284.067C188.531 274.958 195.984 265.813 203.37 256.617C208.591 250.123 212.072 242.742 213.766 234.601C215.276 227.352 214.631 220.165 212.476 213.099C212.363 212.732 212.138 212.401 211.964 212.054C211.795 208.41 211.626 204.77 211.457 201.125C214.421 202.777 217.39 204.434 220.354 206.085C219.714 206.957 220.21 207.879 220.354 208.721C221.393 214.909 221.94 221.118 221.894 227.403C221.853 232.781 220.809 237.889 218.746 242.828C218.27 244.271 217.523 245.581 216.76 246.881C213.976 251.632 211.002 256.27 208.058 260.924C200.242 273.286 192.452 285.658 184.641 298.024C184.185 298.748 183.699 299.447 183.474 300.283C182.48 297.188 181.487 294.089 180.484 291C180.29 290.398 180.3 289.68 179.614 289.328V289.323Z" fill="#C86B2E"/>
<path d="M97.915 219.935C96.6302 226.384 97.3314 232.71 99.1742 238.939C101.222 245.861 104.467 252.162 109.002 257.825C116.301 266.934 123.508 276.115 130.808 285.229C131.724 286.376 132.451 287.406 131.76 288.9C131.688 289.053 131.79 289.287 131.811 289.481C131.145 289.935 131.094 290.699 130.854 291.367C129.738 294.451 129.021 297.667 127.706 300.68C123.334 293.584 118.937 286.504 114.592 279.393C107.676 268.081 100.797 256.75 93.9019 245.423C93.6767 244.882 93.4617 244.337 93.216 243.807C91.7777 240.708 90.7283 237.486 90.2318 234.101C89.3514 228.101 89.766 222.112 90.4622 216.132C90.7693 213.477 91.1276 210.826 91.4603 208.17C91.7418 207.645 92.1309 207.263 92.699 207.018C93.8814 206.503 95.0331 205.927 96.1951 205.377C96.2309 205.83 96.2821 206.284 96.3077 206.743C96.5329 210.658 96.7274 214.583 97.8228 218.385C97.7921 218.513 97.8126 218.63 97.8945 218.737C97.8996 219.135 97.9098 219.538 97.915 219.935Z" fill="#A14A31"/>
<path d="M65.6776 182.953C67.5664 181.428 69.4859 179.945 71.3389 178.38C76.0736 174.394 79.7437 169.561 82.5436 164.066C82.7535 163.658 82.9838 163.261 83.2039 162.858C83.6749 163.5 83.639 164.25 83.4906 164.943C82.518 169.551 81.8321 174.205 81.3305 178.885C81.0439 181.556 81.0541 184.252 81.3151 186.923C81.6888 190.721 82.7177 194.376 84.0229 197.955C83.854 199.968 84.0229 202.007 83.552 204.005C83.2244 205.402 82.9685 206.819 82.7177 208.231C82.5436 209.21 82.7484 209.404 83.7414 209.251C84.1918 209.179 84.632 209.021 85.0774 208.93C86.6795 208.598 88.1639 207.798 89.8275 207.701C89.894 208.384 89.5818 208.97 89.3463 209.582C85.8708 218.651 81.8936 227.495 77.4045 236.11C76.9489 236.981 76.4626 237.843 76.3654 238.847C75.5822 237.104 75.7512 235.161 75.1676 233.189C73.0741 234.28 71.4975 236.079 69.3119 236.864C69.2607 236.105 69.5985 235.457 69.9568 234.83C71.344 232.378 72.7311 229.926 74.1439 227.49C77.0718 222.438 79.8512 217.315 81.6018 211.708C82.216 209.735 82.1546 209.597 80.2044 208.802C75.8075 207.018 72.2244 204.255 69.8749 200.09C67.5818 196.033 66.4915 191.603 66.1485 186.985C66.0564 185.751 66.3123 184.487 65.7442 183.309C65.7083 183.192 65.6827 183.075 65.6776 182.953Z" fill="#F0AC49"/>
<path d="M244.596 183.381C248.363 191.231 249.31 199.52 248.537 208.099C247.851 215.714 245.624 222.989 243.797 230.36C243.454 231.751 243.086 233.138 242.702 234.626C240.833 233.846 239.206 232.903 237.639 231.838C237.737 231.083 237.148 230.66 236.779 230.146C232.92 224.768 230.069 218.921 228.441 212.498C227.781 209.898 227.735 209.873 229.925 208.435C236.805 203.909 241.314 197.695 243.311 189.717C243.833 187.627 244.171 185.496 244.596 183.381Z" fill="#FCC963"/>
<path d="M268.495 83.7239C269.094 83.1989 269.283 82.419 269.708 81.7869C276.096 84.6364 281.706 88.5411 286.349 93.8018C287.792 95.4381 288.611 97.2018 288.739 99.4396C288.913 102.519 289.215 105.577 288.795 108.656C288.401 111.551 287.475 114.268 286.098 116.827C282.151 124.158 277.186 130.739 271.315 136.647C270.993 136.968 270.767 137.569 270.102 137.355C270.793 135.148 272.139 133.272 273.224 131.269C277.944 122.531 282.085 113.57 284.414 103.864C284.598 103.095 284.782 102.335 284.782 101.545C284.92 101.29 284.89 101.203 284.608 101.372C281.189 104.445 278.092 107.84 274.821 111.062C273.659 112.209 272.538 113.397 271.033 114.936C269.785 104.242 269.247 93.9751 268.495 83.729V83.7239Z" fill="#F0AC49"/>
<path d="M65.7441 183.309C66.3123 184.487 66.0564 185.756 66.1485 186.985C66.4915 191.608 67.5817 196.033 69.8749 200.09C72.2244 204.255 75.8074 207.018 80.2044 208.802C82.1546 209.597 82.2211 209.73 81.6018 211.708C79.8512 217.315 77.0718 222.438 74.1439 227.49C72.7311 229.926 71.344 232.378 69.9568 234.83C69.6036 235.457 69.2607 236.099 69.3119 236.864L69.2811 236.884C69.1839 236.956 69.0866 237.032 68.9843 237.104C68.3649 237.236 68.4263 236.66 68.3086 236.38C65.0736 228.672 62.9289 220.684 62.1304 212.345C61.3626 204.332 61.7106 196.395 63.753 188.575C64.2137 186.811 64.8484 185.093 65.4012 183.355L65.35 183.381C65.4831 183.36 65.6111 183.335 65.7441 183.314V183.309Z" fill="#FCC963"/>
<path d="M76.3705 238.847C76.4677 237.843 76.9591 236.981 77.4096 236.11C81.8986 227.495 85.8759 218.651 89.3514 209.582C89.5869 208.97 89.8991 208.384 89.8326 207.701C90.2984 207.298 90.841 207.079 91.445 206.977C91.4501 207.375 91.4603 207.773 91.4654 208.17C91.1327 210.826 90.7795 213.477 90.4673 216.132C89.7712 222.112 89.3565 228.101 90.237 234.101C90.7335 237.486 91.7777 240.708 93.2211 243.807C93.4668 244.337 93.6767 244.888 93.907 245.423C93.1955 249.929 92.8782 254.456 93.0318 259.018C93.0983 261.093 92.8935 263.173 93.3645 265.242C93.5436 266.037 93.6153 266.94 92.9601 267.653C85.2002 259.706 79.5287 250.536 76.5036 239.811C76.4166 239.5 76.4166 239.168 76.3756 238.842L76.3705 238.847Z" fill="#FCC963"/>
<path d="M244.595 183.381C244.171 185.496 243.833 187.627 243.311 189.717C241.314 197.695 236.805 203.903 229.925 208.435C227.74 209.878 227.781 209.898 228.441 212.498C230.069 218.921 232.92 224.768 236.779 230.145C237.148 230.66 237.736 231.083 237.639 231.838C236.692 231.486 236.226 231.731 236.047 232.806C235.684 234.993 235.367 237.2 234.409 239.239C232.848 238.057 232.009 236.324 230.995 234.738C228.426 230.721 226.793 226.322 226.245 221.592C225.723 217.065 225.303 212.523 224.249 208.078C225.313 208.246 226.076 209.322 227.489 209.133C226.905 205.096 226.358 201.14 226.475 197.144C227.648 194.646 228.502 192.057 229.03 189.34C229.536 186.74 229.265 184.12 229.444 181.52C232.94 180.394 236.436 179.272 239.932 178.146C241.535 179.486 243.536 180.358 244.729 182.178C244.094 182.509 244.631 182.978 244.585 183.381H244.595Z" fill="#C86B2E"/>
<path d="M92.955 267.658C93.6101 266.945 93.5385 266.037 93.3593 265.247C92.8884 263.183 93.0932 261.103 93.0266 259.023C92.8782 254.461 93.1955 249.934 93.9019 245.428C100.797 256.75 107.676 268.087 114.592 279.398C118.937 286.509 123.334 293.59 127.706 300.685C127.532 301.644 127.219 302.561 126.83 303.469C126.052 303.219 125.663 302.576 125.182 302.062C114.96 291.173 104.743 280.28 94.5417 269.371C94.0094 268.805 93.303 268.392 92.955 267.658Z" fill="#F0AC49"/>
<path d="M183.468 300.277C183.694 299.441 184.18 298.738 184.635 298.019C192.447 285.658 200.237 273.281 208.053 260.919C210.997 256.265 213.971 251.627 216.755 246.876C217.518 245.576 218.265 244.266 218.741 242.823C219.299 244.164 219.391 245.601 219.458 247.003C219.668 251.632 219.186 256.219 218.454 260.792C218.045 263.371 217.206 265.838 216.75 268.403C215.808 269.84 214.498 270.946 213.336 272.19C203.989 282.202 194.627 292.193 185.27 302.199C185.05 302.439 184.871 302.719 184.594 303.086C183.791 302.158 183.714 301.185 183.463 300.283L183.468 300.277Z" fill="#F0AC49"/>
<path d="M216.76 268.403C217.211 265.839 218.05 263.371 218.465 260.792C219.197 256.219 219.678 251.632 219.468 247.003C219.401 245.601 219.309 244.159 218.751 242.823C220.814 237.889 221.864 232.776 221.899 227.398C221.945 221.113 221.398 214.904 220.359 208.716C220.215 207.874 219.724 206.952 220.359 206.08C221.638 206.789 223.097 207.151 224.259 208.083C225.314 212.534 225.728 217.07 226.255 221.597C226.803 226.327 228.436 230.727 231.006 234.744C232.019 236.324 232.858 238.062 234.42 239.245C233.933 241.967 232.807 244.475 231.691 246.973C228.247 254.695 223.374 261.465 217.656 267.658C217.395 267.939 217.062 268.153 216.76 268.403Z" fill="#EC8728"/>
<path d="M251.879 184.497C251.885 184.405 251.895 184.314 251.895 184.227C252.064 184.079 252.233 183.926 252.401 183.778C252.755 184.054 253.108 184.324 253.61 184.711C252.857 185.037 252.381 184.64 251.879 184.497Z" fill="#C86B2E"/>
<path d="M269.687 138.145C269.723 137.799 269.8 137.477 270.133 137.284C270.47 137.824 269.928 137.906 269.687 138.145Z" fill="#F0AC49"/>
<path d="M68.9894 237.099C69.0866 237.027 69.1839 236.951 69.2863 236.879C69.2607 237.048 69.189 237.16 68.9894 237.099Z" fill="#F0AC49"/>
<path d="M97.9149 219.935C97.9098 219.538 97.8996 219.135 97.8945 218.737C97.9149 218.696 97.9559 218.645 97.9457 218.615C97.9149 218.533 97.8638 218.462 97.8228 218.386C96.7274 214.583 96.5329 210.658 96.3077 206.743C96.2821 206.289 96.2309 205.835 96.1951 205.377C96.323 205.122 96.4459 204.867 96.5739 204.612C100.93 202.043 104.723 198.867 107.594 194.651C109.498 191.858 110.809 188.789 112.068 185.69C112.652 186.052 112.861 186.725 113.317 187.194C114.095 187.999 114.418 187.938 114.766 186.878C116.327 182.081 117.806 177.264 118.901 172.334C120.207 166.452 120.371 160.539 119.198 154.62C118.523 151.22 117.56 147.871 117.028 144.451C116.675 142.188 115.861 140.23 114.72 138.283C113.558 136.31 112.667 134.184 111.653 132.125C111.469 131.748 111.531 131.192 110.921 131.1C110.563 131.61 110.415 132.196 110.44 132.783C110.594 135.933 110.031 139.047 110.026 142.188C110.026 144.41 110.077 146.622 110.348 148.845C110.635 151.195 109.934 153.524 109.903 155.88C108.961 153.438 108.04 150.991 107.067 148.559C104.503 142.167 101.493 135.963 98.7135 129.663C96.0517 123.627 94.0606 117.398 93.6869 110.756C93.82 110.165 93.8456 109.579 93.5641 109.013C93.5129 108.595 93.4566 108.177 93.4054 107.759C93.7176 107.096 93.6767 106.382 93.7125 105.684C93.7893 104.083 93.9326 102.493 94.3831 100.943C97.5925 101.106 100.807 101.321 104.016 101.402C105.291 101.433 106.187 101.733 107.021 102.819C108.833 105.169 111.049 107.127 113.68 108.574C115.17 109.395 115.277 109.359 116.071 107.871C118.2 103.88 120.34 99.8984 122.449 95.8968C123.329 94.2197 124.143 92.5069 124.982 90.8095C125.996 89.4739 126.8 87.9701 128.049 86.8181C129.466 86.9812 130.531 86.0382 131.754 85.6151C138.557 83.2753 145.488 81.7308 152.715 81.2414C156.099 81.012 159.426 81.221 162.722 81.5167C169.694 82.1386 176.415 84.0195 182.936 86.5734C183.356 86.7365 183.822 86.7875 184.267 86.8895C185.419 87.8172 185.936 89.27 187.036 90.2335L187.01 90.3507C187.21 90.8299 187.369 91.3345 187.614 91.7882C190.619 97.3598 193.634 102.926 196.644 108.498C197.033 109.675 197.478 110.843 197.79 112.041C199.019 116.679 199.434 121.435 199.654 126.202C199.94 132.538 199.393 138.884 200.027 145.221C200.601 150.94 202.085 156.389 204.219 161.696C204.706 163.796 205.566 165.779 206.339 167.777C207.122 169.791 207.071 171.728 206.395 173.695C205.991 174.868 205.509 176.01 205.018 177.152C204.138 179.196 202.827 181.005 201.747 182.942C201.071 183.982 200.094 184.828 199.7 186.057C198.65 187 198.098 188.366 196.982 189.248C196.137 186.684 196.137 183.992 195.784 181.357C195.385 178.38 195.241 175.372 194.857 172.39C194.479 169.47 194.55 166.518 194.197 163.602C193.997 161.956 194.581 160.35 194.55 158.719C194.499 156.287 194.776 153.856 195.113 151.491C195.507 148.692 195.221 145.985 194.842 143.294C194.207 138.813 192.856 134.521 190.977 130.351C187.456 122.531 182.306 116.032 175.581 110.766C169.93 106.337 163.797 102.656 157.302 99.5721C156.242 99.0675 155.352 99.1083 154.318 99.6129C148.226 102.59 142.299 105.822 136.955 110.032C132.394 113.626 128.345 117.709 124.875 122.358C124.588 122.74 124.112 123.118 124.368 123.734C126.165 124.198 127.89 123.49 129.651 123.469C129.794 125.59 129.446 127.756 130.214 129.821C130.234 130.203 130.255 130.586 130.275 130.968C130.255 131.029 130.214 131.095 130.229 131.141C130.26 131.253 130.326 131.355 130.378 131.467C130.705 132.747 130.674 134.103 131.268 135.321C131.78 138.288 133.285 140.781 135.036 143.161C135.593 144.069 136.151 144.971 136.709 145.878C136.218 146.648 135.721 147.423 135.235 148.192C130.388 155.823 128.264 164.056 129.799 173.058C130.465 176.948 131.729 180.648 134.007 183.936C133.751 184.711 133.162 185.241 132.635 185.812C129.405 189.319 125.187 190.966 120.703 192.113C120.227 192.408 119.511 192.184 119.106 192.883C119.807 193.846 121.026 194.162 121.855 194.952C121.747 197.633 121.978 200.289 122.198 202.96C122.51 206.738 122.966 210.489 123.682 214.2C124.373 217.789 125.192 221.347 125.96 224.921C125.894 224.987 125.827 225.053 125.761 225.119C124.46 223.86 122.899 222.861 121.865 221.327C121.727 221.123 121.589 220.919 121.451 220.715L121.466 220.741C121.297 220.368 121.026 220.103 120.652 219.935L120.678 219.95C120.539 219.813 120.401 219.675 120.263 219.538L120.284 219.558L119.869 219.145L119.889 219.165C119.68 218.911 119.403 218.783 119.081 218.758L119.101 218.768L118.687 218.355L118.712 218.375C118.543 218.238 118.374 218.105 118.205 217.968C118.103 217.876 118.006 217.779 117.903 217.687C117.77 217.514 117.637 217.346 117.499 217.172L117.514 217.193C117.376 217.055 117.238 216.917 117.1 216.78L117.115 216.8C116.977 216.663 116.839 216.525 116.7 216.387L116.716 216.403C116.578 216.265 116.439 216.127 116.306 215.995L116.322 216.01L115.912 215.602L115.928 215.618L115.518 215.21L115.533 215.22C115.339 215.087 115.139 214.95 114.945 214.817C114.827 214.797 114.76 214.725 114.74 214.613C114.545 214.42 114.346 214.226 114.151 214.027C113.204 213.257 112.339 212.406 111.566 211.463C111.572 211.081 111.51 210.724 111.157 210.495V210.505C111.029 210.372 110.896 210.24 110.768 210.107C110.63 209.195 110.123 208.644 109.181 208.527L109.191 208.542C109.171 208.384 109.217 208.18 108.992 208.155C108.941 208.15 108.869 208.323 108.807 208.415C108.767 209.2 108.823 209.975 108.971 210.749C110.261 217.453 112.452 223.85 115.405 230.003C117.294 233.948 119.454 237.751 121.558 241.589C118.743 240.662 116.23 239.122 113.66 237.695C109.14 235.182 105.352 231.818 102.204 227.729C100.955 226.108 100.065 224.304 99.2714 222.433C98.9028 221.556 98.8005 220.516 97.8996 219.92L97.9149 219.935Z" fill="#FCC963"/>
<path d="M121.865 221.342C122.899 222.876 124.455 223.876 125.761 225.135C125.853 225.165 125.945 225.191 126.037 225.221C126.011 225.124 125.986 225.033 125.96 224.936C125.198 221.362 124.373 217.804 123.682 214.216C122.966 210.5 122.515 206.748 122.198 202.976C121.978 200.305 121.748 197.649 121.855 194.967C124.89 196.079 128.008 196.777 131.243 196.945C135.199 197.149 139.095 196.945 142.867 195.589C144.29 195.513 145.293 196.395 146.368 197.119C146.844 198.587 148.052 199.581 148.846 200.84C149.168 201.35 149.573 201.768 150.202 201.895C150.32 202.675 150.32 203.455 150.212 204.24C149.501 209.373 149.306 214.501 149.829 219.68C150.479 226.134 152.224 232.246 155.05 238.072C156.836 241.651 158.96 245 161.648 247.992C162.948 249.445 164.407 250.78 165.374 252.508C162.287 252.192 159.298 251.443 156.36 250.459C153.488 249.496 150.75 248.232 148.088 246.784C145.396 245.321 143.046 243.348 140.615 241.625C140.108 242.033 140.205 242.369 140.252 242.68C140.574 244.882 140.845 247.09 141.25 249.277C142.99 258.712 145.56 267.898 149.864 276.533C150.069 276.941 150.34 277.328 150.32 277.813C148.59 277.252 147.653 275.753 146.568 274.494C142.038 269.254 137.569 263.963 133.408 258.416C129.876 253.706 126.406 248.955 123.263 243.975C122.741 243.149 122.326 242.252 121.563 241.595C119.465 237.761 117.305 233.958 115.411 230.008C112.462 223.85 110.266 217.453 108.976 210.754C108.828 209.98 108.772 209.205 108.813 208.42C108.941 208.461 109.069 208.506 109.197 208.547L109.186 208.532C109.493 209.281 109.785 210.041 110.773 210.117C110.727 210.423 110.85 210.571 111.172 210.515L111.167 210.505C110.978 210.963 111.316 211.203 111.577 211.473C112.35 212.416 113.21 213.268 114.162 214.037C114.356 214.231 114.556 214.425 114.75 214.624C114.771 214.741 114.837 214.807 114.955 214.827C115.15 214.96 115.349 215.098 115.544 215.23L115.528 215.22C115.574 215.444 115.713 215.582 115.938 215.628L115.922 215.612C115.969 215.837 116.107 215.974 116.332 216.02L116.317 216.005C116.368 216.229 116.506 216.362 116.726 216.413L116.711 216.397C116.762 216.617 116.905 216.754 117.125 216.81L117.11 216.79C117.166 217.009 117.305 217.142 117.525 217.203L117.509 217.182C117.642 217.356 117.775 217.524 117.914 217.697C118.016 217.789 118.113 217.886 118.216 217.978C118.385 218.11 118.553 218.248 118.717 218.385L118.692 218.365C118.83 218.503 118.968 218.64 119.106 218.778L119.086 218.768C119.275 219.063 119.521 219.247 119.895 219.176L119.874 219.155C119.884 219.425 120.028 219.553 120.289 219.568L120.268 219.548C120.284 219.808 120.422 219.945 120.683 219.961L120.657 219.945C120.683 220.46 120.98 220.705 121.471 220.751L121.456 220.725C121.486 221.001 121.655 221.184 121.87 221.337L121.865 221.342Z" fill="#EC8728"/>
<path d="M165.379 252.508C164.407 250.78 162.953 249.445 161.653 247.992C158.965 245 156.841 241.651 155.055 238.072C155.73 237.715 156.063 237.083 156.447 236.466C157.865 234.178 158.986 231.746 160.045 229.284C163.117 222.127 165.098 214.731 164.934 206.87C164.883 204.459 165.046 202.038 164.591 199.637C164.453 198.898 164.176 197.776 164.857 197.414C166.352 196.619 167.749 195.248 169.725 195.89C170.616 196.211 171.598 196.206 172.453 196.67C172.909 199.943 174.06 203.016 175.186 206.095C176.2 208.868 177.295 211.611 178.304 214.384C179.957 218.926 180.848 223.6 180.761 228.448C180.756 228.881 180.602 229.366 181.196 229.942C183.75 227.459 186.289 224.972 188.741 222.081C189.176 222.917 188.971 223.534 188.879 224.141C187.615 232.307 184.165 239.52 179.235 246.08C177.106 248.915 174.946 251.723 172.801 254.542C172.617 254.833 172.719 254.833 172.96 254.7C174.797 253.854 176.64 253.018 178.478 252.162C186.857 248.262 195.456 244.857 203.769 240.82C204.24 240.59 204.721 240.366 205.269 240.427L205.254 240.412C203.979 243.471 201.86 245.994 199.935 248.629C196.915 252.768 193.429 256.52 189.867 260.185C184.789 265.405 179.496 270.416 174.46 275.677C167.897 282.533 162.221 290.052 158.213 298.718C157.445 300.374 156.739 302.056 155.889 303.983C155.295 302.867 155.275 301.847 155.132 300.889C154.328 295.521 153.55 290.154 152.833 284.776C152.654 283.42 152.721 282.033 152.675 280.657C152.797 280.428 152.9 280.178 153.048 279.969C158.013 273.036 163.04 266.144 168.44 259.538C169.351 258.422 170.293 257.326 171.189 256.194C171.481 255.832 171.767 255.317 171.102 255.078C169.131 254.359 167.508 252.886 165.389 252.503L165.379 252.508Z" fill="#C86B2E"/>
<path d="M172.443 196.665C171.593 196.206 170.605 196.211 169.715 195.885C169.699 195.131 170.267 194.743 170.738 194.32C171.859 193.311 172.735 192.123 173.431 190.793C174.439 191.256 175.463 191.674 176.538 191.98C178.938 192.653 181.411 192.949 183.868 193.148C186.785 193.382 189.708 193.107 192.575 192.444C193.383 192.577 194.079 192.414 194.658 191.776C195.426 190.93 196.378 190.252 196.987 189.253C198.108 188.371 198.656 187.005 199.705 186.062C200.078 187.112 200.427 188.167 200.836 189.207C202.172 192.612 204.035 195.605 206.968 197.949C208.412 199.102 210.121 199.841 211.457 201.125C211.626 204.77 211.795 208.41 211.964 212.054C211.77 217.82 211.406 223.565 209.978 229.187C209.881 229.569 209.743 229.942 209.686 230.329C209.522 231.496 208.862 232.113 207.736 232.495C203.027 234.101 198.246 235.472 193.25 236.976C193.327 236.048 193.752 235.483 194.054 234.886C196.634 229.804 198.287 224.472 198.681 218.763C198.922 215.256 198.589 211.825 197.575 208.476C196.188 203.888 194.161 199.555 192.083 195.238C191.612 194.259 191.136 194.274 190.246 194.672C185.639 196.721 180.771 197.221 175.785 196.869C174.669 196.792 173.554 196.736 172.438 196.67L172.443 196.665Z" fill="#7B3835"/>
<path d="M165.379 252.508C167.498 252.896 169.121 254.369 171.092 255.083C171.757 255.327 171.47 255.837 171.179 256.199C170.278 257.326 169.341 258.427 168.43 259.543C163.03 266.149 158.008 273.041 153.038 279.974C152.884 280.183 152.787 280.433 152.664 280.662C152.163 280.509 151.943 280.015 151.548 279.739C151.507 279.434 151.369 279.194 151.083 279.056C150.99 278.909 150.893 278.756 150.801 278.608C150.765 278.271 150.653 277.976 150.325 277.807L150.335 277.823C150.356 277.333 150.084 276.946 149.88 276.543C145.57 267.908 143.005 258.727 141.265 249.287C140.861 247.1 140.589 244.888 140.267 242.691C140.221 242.38 140.124 242.043 140.63 241.635C143.057 243.358 145.411 245.326 148.104 246.794C150.765 248.242 153.499 249.506 156.375 250.469C159.308 251.453 162.298 252.203 165.389 252.519L165.379 252.508Z" fill="#7B3835"/>
<path d="M150.32 277.802C150.648 277.971 150.76 278.266 150.796 278.603C150.489 278.424 150.335 278.154 150.32 277.802Z" fill="#EC8728"/>
<path d="M151.078 279.056C151.364 279.194 151.507 279.434 151.543 279.739C151.287 279.581 151.139 279.347 151.078 279.056Z" fill="#EC8728"/>
<path d="M205.259 240.428L205.336 240.325L205.243 240.412L205.259 240.428Z" fill="#C86B2E"/>
<path d="M184.277 86.8946C183.832 86.7926 183.366 86.7467 182.946 86.5785C176.425 84.0247 169.704 82.1488 162.733 81.5218C159.436 81.2261 156.114 81.0171 152.726 81.2465C145.498 81.7359 138.573 83.2804 131.765 85.6202C130.541 86.0433 129.477 86.9863 128.059 86.8232C128.294 85.9923 128.883 85.3755 129.349 84.6873C130.541 82.9338 131.765 81.1955 132.978 79.4573C135.583 76.414 137.815 73.1006 140.011 69.7618C141.347 67.7329 142.524 65.6226 143.277 63.2879C145.012 57.8896 143.686 53.261 139.939 49.1371C137.733 46.7056 134.99 45.0693 132.128 43.5859C132.113 43.4381 132.103 43.2954 132.087 43.1475C135.107 38.7585 138.593 34.7468 142.36 31.0052C146.174 27.2177 150.238 23.6851 154.666 20.596C155.096 20.2953 155.567 20.0455 155.812 19.5459C159.662 18.9597 163.521 19.0719 167.37 19.4287C168.153 19.5001 168.937 19.5561 169.72 19.5918C177.454 19.913 184.907 21.4575 192.011 24.6027C195.032 25.9382 197.78 27.6612 200.299 29.7869C200.846 30.2508 201.486 30.5974 202.085 31.0001C202.699 32.5956 203.749 33.9516 204.516 35.4604C205.079 36.5615 205.76 37.6167 206.078 38.835L205.975 38.937C204.685 38.4578 203.974 37.2752 202.965 36.4596C202.361 35.9702 201.885 35.282 201.005 35.2361C200.928 34.9405 200.79 34.6856 200.503 34.5378C200.447 34.3951 200.401 34.3747 200.381 34.4817C200.381 34.4919 200.462 34.5174 200.508 34.5378C200.498 34.864 200.606 35.1444 200.857 35.3636C201.885 37.8614 203.518 40.0125 204.936 42.2809C209.835 50.1006 214.825 57.8641 219.775 65.6531C221.285 68.0286 222.78 70.4142 224.3 72.7795C224.648 73.3249 224.919 73.9366 225.472 74.3342C225.237 75.0377 224.669 75.5067 224.223 76.0572C221.935 78.8863 219.565 81.6594 217.845 84.9014C217.231 84.147 217.221 83.204 217.098 82.317C215.977 74.2221 212.179 67.8247 205.11 63.4918C204.051 62.8393 203.058 62.0951 202.116 61.2846C201.931 61.045 201.747 60.8054 201.563 60.5607C201.461 60.4384 201.358 60.316 201.256 60.1886L201.235 60.158C201.2 59.9541 201.087 59.8114 200.887 59.7502H200.882C200.222 57.6908 199.045 55.9118 197.79 54.1735C196.823 51.6655 195.431 49.3716 194.115 47.042C193.731 46.3641 193.102 46.0735 192.401 45.8288C188.428 44.4423 184.323 43.6012 180.187 42.8926C179.655 42.8009 179.153 42.8825 178.647 43.0864C174.7 44.6564 171.501 47.1644 169.141 50.697C168.594 51.5126 168.118 52.3741 168.046 53.3936C167.631 53.9288 167.437 54.5711 167.375 55.2134C167.058 58.3739 167.176 61.4732 168.635 64.4093C169.689 66.5248 170.779 68.6097 172.182 70.5162C174.429 73.5798 176.702 76.623 178.964 79.6714C179.24 80.0435 179.527 80.3952 179.957 80.6042C181.175 82.8573 182.977 84.7077 184.272 86.9048L184.277 86.8946Z" fill="#F0AC49"/>
<path d="M217.851 84.8913C219.57 81.6543 221.94 78.8813 224.228 76.047C224.674 75.4965 225.242 75.0275 225.477 74.3241C226.844 73.5289 227.341 71.8569 229.04 70.7558C229.158 87.0934 229.004 103.095 229.106 119.096C229.009 120.161 228.6 121.114 228.119 122.057C226.711 124.815 225.534 127.68 224.935 130.713C224.249 134.184 223.885 137.702 224.515 141.245C224.607 141.754 224.551 142.29 224.561 142.809C223.783 141.77 223.757 141.754 223.138 142.626C221.705 144.66 220.359 146.76 218.864 148.748C217.912 150.012 217.723 151.353 217.953 152.821C218.695 157.48 219.678 162.088 221.428 166.488C223.537 171.794 225.979 176.932 229.455 181.515C229.275 184.12 229.547 186.735 229.04 189.335C228.513 192.052 227.658 194.641 226.486 197.139C221.889 195.355 217.426 193.28 213.1 190.935C209.522 188.993 206.113 186.776 203.227 183.855C202.812 183.432 202.397 183.004 201.757 182.942C202.843 181.005 204.148 179.196 205.028 177.152C205.52 176.015 206.001 174.868 206.405 173.695C207.081 171.728 207.132 169.791 206.349 167.777C205.576 165.779 204.716 163.796 204.23 161.696C205.115 159.876 205.996 158.051 206.891 156.231C213.474 142.876 218.306 128.965 220.451 114.192C221.26 108.61 221.531 102.998 221.403 97.3649C221.393 96.9164 221.244 96.4729 221.162 96.0243C221.367 95.5808 221.275 95.1424 221.173 94.6938C220.707 92.6599 219.99 90.7178 218.92 88.9234C218.178 87.6694 217.62 86.3848 217.851 84.8811V84.8913Z" fill="#7B3835"/>
<path d="M247.912 75.527C247.308 75.4659 246.71 75.1396 246.1 75.5016C243.48 74.6503 240.854 73.8194 238.31 72.7642C237.849 72.5705 237.332 72.2901 236.836 72.7387C234.962 70.8169 232.367 70.3428 230.012 69.4049C228.907 68.9614 228.159 68.3293 227.55 67.3149C223.793 61.0857 219.924 54.9279 215.537 49.1065C215.071 48.4897 214.585 47.8882 214.078 47.2459C214.733 46.8891 215.194 47.2255 215.639 47.4192C223.594 50.7938 231.159 54.8667 237.895 60.3109C242.855 64.3176 247.39 68.783 251.209 73.9111C251.572 74.4005 252.33 74.9357 251.905 75.5882C251.521 76.1744 250.682 75.8788 250.052 75.8482C249.335 75.8125 248.624 75.6443 247.912 75.5321V75.527Z" fill="#A14A31"/>
<path d="M236.836 72.7336C237.332 72.285 237.849 72.5705 238.31 72.7591C240.859 73.8194 243.485 74.6452 246.1 75.4964C246.449 79.7121 246.024 83.8921 245.461 88.0619C244.754 89.4331 244.867 91.0796 243.981 92.3897C243.992 90.1009 243.956 87.8121 244.027 85.5284C244.155 81.5523 242.671 78.2644 239.851 75.5321C238.868 74.5738 237.839 73.6664 236.831 72.7336H236.836Z" fill="#7B3835"/>
<path d="M206.083 38.8248C206.113 38.8656 206.18 38.9115 206.175 38.9421C206.149 39.0593 206.078 39.0491 205.98 38.9319L206.083 38.8299V38.8248Z" fill="#F0AC49"/>
<path d="M82.6562 116.751C81.9037 116.613 81.6427 115.956 81.2793 115.431C76.6417 108.732 72.2039 101.917 68.6106 94.5918C68.3495 94.0617 68.114 93.5163 67.6073 93.1543C66.8753 91.6965 66.5477 90.0347 65.3909 88.7909C65.4216 88.0007 65.2322 87.2463 65.0377 86.4817C64.229 83.3212 63.5328 80.1556 64.1215 76.8524C64.2699 76.0317 64.1522 75.16 64.1573 74.3139C69.8442 72.7132 75.4849 70.9546 81.1103 69.1501C82.2365 68.7881 83.122 68.2631 83.6799 67.2079C83.9563 66.6879 84.33 66.2241 84.6371 65.7245C88.5068 59.4851 92.6376 53.4343 97.5208 47.929C97.833 47.5773 98.0992 47.2153 98.1504 46.7362L98.2374 46.6648L98.1658 46.7515C97.6385 46.7413 97.1215 46.7923 96.6148 46.9758C93.0983 48.2552 89.6125 49.6214 86.2853 51.3393C75.9354 56.6917 67.3309 64.1799 59.8474 73.0089C59.4123 73.5237 58.8288 74.0386 58.9312 74.844C59.9549 75.3996 60.9018 74.7166 61.8642 74.8083C61.6185 75.4149 61.0503 75.6341 60.5231 75.8737C55.4914 78.1829 51.0075 81.2669 47.0814 85.1614C46.3392 85.8955 45.551 86.5785 44.517 86.8997C43.4216 84.9456 43.6485 83.187 45.1978 81.6237C54.1247 72.596 62.3914 62.9871 70.4328 53.1744C72.1424 51.0895 73.9237 49.0607 75.5003 46.884C76.6929 45.2375 78.1364 44.3862 80.1429 43.9529C87.3858 42.4033 94.3114 39.9361 100.822 36.3729C102.199 35.6185 103.433 34.5989 104.968 34.1351C104.16 36.1435 102.936 37.9276 101.882 39.8035C101.498 40.4815 101.15 41.185 100.781 41.8731C100.648 42.0006 100.531 42.1382 100.751 42.2758C100.781 42.2962 100.914 42.1535 100.996 42.0872C102.583 41.4245 103.776 40.1196 105.47 39.3651C105.572 40.2113 105.076 40.7619 104.748 41.3277C100.833 48.087 96.8912 54.8362 92.9703 61.5955C92.5147 62.3805 91.8954 63.0942 91.7674 64.0423L91.8186 64.027C91.4296 64.1698 91.3016 64.4501 91.4091 64.8426L91.4347 64.8171C91.1378 64.8018 91.0508 64.9956 91.015 65.2402L91.0354 65.2046C90.6976 65.3779 90.5901 65.6684 90.6208 66.0304L90.6515 65.9947C90.3905 66.0202 90.2881 66.1986 90.2318 66.4229L90.2523 66.3923C89.9861 66.6013 89.8684 66.8969 89.7814 67.2079C88.4966 68.6403 87.7851 70.4295 86.7716 72.0251C86.403 72.6062 86.27 73.223 86.2648 73.8908C84.1099 74.7879 82.692 76.7709 82.692 78.9067C82.6818 91.5231 82.6715 104.14 82.6613 116.756L82.6562 116.751Z" fill="#C86B2E"/>
<path d="M61.8641 74.7981C60.9018 74.7064 59.9498 75.3895 58.9311 74.8338C58.8288 74.0284 59.4123 73.5136 59.8474 72.9987C67.3309 64.1698 75.9302 56.6815 86.2853 51.3291C89.6073 49.6112 93.0931 48.2451 96.6148 46.9656C97.1215 46.7821 97.6334 46.7311 98.1657 46.7413L98.1504 46.726C98.1043 47.2103 97.833 47.5671 97.5208 47.9188C92.6376 53.4242 88.5068 59.475 84.6371 65.7143C84.3249 66.2139 83.9563 66.6829 83.6799 67.1977C83.1169 68.2529 82.2364 68.778 81.1103 69.1399C75.4849 70.9495 69.8441 72.7031 64.1573 74.3037C63.9116 74.3343 63.6659 74.3598 63.4202 74.3903C63.0926 74.3343 62.8162 74.4311 62.591 74.6707L61.8693 74.793L61.8641 74.7981Z" fill="#A14A31"/>
<path d="M56.4282 120.39C56.203 121.104 56.1006 121.869 55.5324 122.429C54.6674 121.053 53.7512 119.702 52.9424 118.295C52.0466 116.736 51.0946 115.186 50.9922 113.259C53.0089 115.492 55.1281 117.628 56.4333 120.39H56.4282Z" fill="#C86B2E"/>
<path d="M62.5859 74.6758C62.8112 74.4362 63.0876 74.3394 63.4152 74.3954C63.1746 74.5993 62.8982 74.686 62.5859 74.6758Z" fill="#C86B2E"/>
<path d="M64.5566 133.343L64.6337 133.4L64.572 133.328L64.5566 133.343Z" fill="#EC8728"/>
<path d="M86.2598 73.8908C86.2598 73.223 86.398 72.6062 86.7665 72.0251C87.7851 70.4295 88.4966 68.6403 89.7814 67.2079C90.0476 66.9989 90.1807 66.7134 90.2523 66.3923L90.2319 66.4229C90.3701 66.2801 90.5134 66.1374 90.6516 65.9947L90.6209 66.0304C90.8666 65.8112 90.9894 65.5257 91.0355 65.2046L91.015 65.2402C91.1532 65.0975 91.2965 64.9599 91.4347 64.8171L91.4091 64.8426C91.6702 64.6336 91.7879 64.3533 91.8186 64.027C91.8186 64.027 91.7675 64.0372 91.7675 64.0423C92.5199 63.9302 92.8117 63.293 93.1853 62.773C97.6744 56.5438 102.199 50.3401 106.606 44.0549C107.707 42.4848 108.935 41.9496 110.855 41.9241C115.467 41.868 120.053 42.3064 124.65 42.4746C127.117 42.5664 129.63 42.704 132.092 43.1475C132.108 43.2953 132.118 43.4381 132.133 43.5859C131.289 43.7031 130.449 43.8867 129.6 43.9325C125.592 44.1415 121.645 44.7583 117.699 45.4567C116.45 45.6759 115.728 46.2213 115.201 47.3377C113.087 51.7725 110.911 56.1768 108.756 60.5913C108.582 60.943 108.398 61.2947 108.444 61.7076C108.111 61.8606 108.004 62.1766 107.871 62.4774C106.647 63.6855 105.086 64.4093 103.72 65.4187C99.7782 68.3395 96.8042 71.9435 95.2737 76.6638C94.6697 78.5295 94.1425 80.4054 93.7842 82.3374C93.5232 83.7443 93.2212 85.1512 92.6172 86.4715C91.8494 87.1596 91.0867 87.8478 90.3086 88.5309C89.9043 88.8826 89.4999 88.8826 89.116 88.4799C89.0392 87.9651 88.9829 87.4451 88.8805 86.9354C88.0155 82.5923 87.1351 78.2441 86.2649 73.901L86.2598 73.8908Z" fill="#FCC963"/>
<path d="M86.2598 73.8908C87.1351 78.2339 88.0104 82.577 88.8754 86.9252C88.9778 87.4349 89.0341 87.9549 89.1109 88.4646C89.0495 89.0814 88.7731 89.5198 88.2202 89.8818C86.8075 90.7993 86.8433 90.8248 87.2835 92.4662C88.4352 96.7532 90.0169 100.887 91.6805 104.996C92.0848 105.995 92.392 107.122 93.4106 107.764C93.4618 108.182 93.5181 108.6 93.5693 109.018C93.4106 109.614 93.3696 110.201 93.6921 110.766C94.0709 117.414 96.0569 123.638 98.7186 129.673C101.498 135.974 104.508 142.172 107.072 148.57C108.045 151.001 108.966 153.448 109.908 155.89C109.417 159.631 108.772 163.337 107.318 166.855C105.291 164.714 103.561 162.333 101.749 160.019C101.273 159.412 100.945 158.648 100.111 158.393C99.727 157.261 98.8671 156.399 98.3347 155.344C95.3352 149.426 93.0779 143.222 91.0457 136.927C90.2063 134.322 89.4538 131.671 87.8312 129.393C86.9099 125.687 85.1798 122.312 83.4241 118.958C83.0555 118.255 82.7433 117.546 82.6562 116.751C82.6665 104.134 82.6767 91.5181 82.687 78.9017C82.687 76.7658 84.11 74.7828 86.2598 73.8857V73.8908Z" fill="#7B3835"/>
<path d="M100.111 158.388C100.945 158.642 101.273 159.407 101.749 160.014C103.561 162.328 105.291 164.708 107.318 166.849C107.134 167.68 107.083 168.567 106.745 169.327C105.608 171.881 106.105 174.312 107.083 176.749C107.62 178.084 108.163 179.42 108.925 180.654C109.268 181.209 109.621 181.77 109.729 182.433C109.591 183.192 109.048 183.676 108.552 184.196C107.18 185.613 105.654 186.847 104.032 187.958C97.828 192.205 90.9536 195.131 84.028 197.955C82.7177 194.376 81.6888 190.721 81.3203 186.924C81.0592 184.252 81.049 181.556 81.3356 178.885C81.8373 174.205 82.5283 169.551 83.4957 164.943C83.6441 164.25 83.6749 163.5 83.2091 162.858C83.4138 162.144 83.7465 161.502 84.2174 160.931C87.5702 164.377 90.3394 168.231 92.3664 172.635C95.0178 170.188 98.4883 163.75 100.116 158.382L100.111 158.388Z" fill="#EC8728"/>
<path d="M100.111 158.387C98.4831 163.755 95.0127 170.193 92.3612 172.64C90.3342 168.236 87.5599 164.377 84.2123 160.936C85.1132 158.143 86.1523 155.4 86.8484 152.536C88.5068 145.73 88.686 138.859 87.9694 131.931C87.8824 131.09 87.8721 130.239 87.8261 129.393C89.4487 131.671 90.2011 134.322 91.0406 136.927C93.0727 143.222 95.33 149.426 98.3296 155.344C98.8619 156.394 99.7167 157.256 100.106 158.393L100.111 158.387Z" fill="#522931"/>
<path d="M65.7441 183.309C65.611 183.33 65.4831 183.355 65.35 183.376C65.4575 183.233 65.565 183.095 65.6725 182.953C65.6827 183.075 65.7032 183.192 65.739 183.309H65.7441Z" fill="#2D1D24"/>
<path d="M229.455 181.52C225.979 176.932 223.537 171.794 221.428 166.493C219.683 162.093 218.695 157.485 217.953 152.826C217.717 151.358 217.912 150.017 218.864 148.753C220.359 146.765 221.705 144.665 223.138 142.631C223.752 141.754 223.778 141.775 224.561 142.815C225.001 152.362 227.586 161.268 232.654 169.419C234.01 171.595 235.561 173.624 237.389 175.444C238.269 176.321 239.277 177.085 239.948 178.156C236.452 179.277 232.956 180.404 229.46 181.525L229.455 181.52Z" fill="#522931"/>
<path d="M201.757 182.953C202.397 183.014 202.812 183.442 203.226 183.865C206.113 186.786 209.522 189.008 213.1 190.946C217.426 193.29 221.889 195.37 226.486 197.149C226.363 201.146 226.911 205.101 227.499 209.139C226.086 209.327 225.324 208.247 224.259 208.083C223.097 207.151 221.638 206.789 220.359 206.08C217.395 204.428 214.431 202.777 211.462 201.12C210.132 199.841 208.417 199.102 206.973 197.944C204.04 195.6 202.177 192.607 200.841 189.202C200.437 188.167 200.089 187.107 199.71 186.057C200.104 184.834 201.082 183.987 201.757 182.942V182.953Z" fill="#522931"/>
<path d="M96.5738 204.612C96.4459 204.867 96.323 205.122 96.1951 205.377C95.0331 205.927 93.8763 206.503 92.699 207.018C92.1308 207.268 91.7367 207.645 91.4603 208.17C91.4552 207.772 91.4449 207.375 91.4398 206.977C93.0778 206.029 94.8181 205.305 96.5738 204.617V204.612Z" fill="#F0AC49"/>
<path d="M97.8229 218.385C97.8638 218.462 97.9201 218.533 97.9457 218.615C97.9559 218.645 97.9099 218.696 97.8945 218.737C97.8177 218.63 97.7921 218.513 97.8229 218.385Z" fill="#F0AC49"/>
<path d="M96.5739 204.612C94.8181 205.305 93.0778 206.024 91.4398 206.972C90.8409 207.069 90.2932 207.293 89.8274 207.696C88.1639 207.793 86.6795 208.593 85.0773 208.924C84.6269 209.016 84.1918 209.174 83.7414 209.246C82.7483 209.404 82.5436 209.21 82.7176 208.226C82.9684 206.814 83.2244 205.397 83.552 204C84.0229 202.002 83.854 199.968 84.0229 197.949C90.9484 195.125 97.8177 192.194 104.027 187.953C105.649 186.842 107.18 185.608 108.546 184.191C109.048 183.671 109.591 183.187 109.724 182.427C110.737 183.345 111.474 184.467 112.068 185.685C110.809 188.784 109.498 191.853 107.594 194.646C104.723 198.862 100.93 202.038 96.5739 204.607V204.612Z" fill="#C86B2E"/>
<path d="M284.608 101.372C284.89 101.203 284.92 101.29 284.782 101.545C284.721 101.489 284.664 101.433 284.608 101.372Z" fill="#C86B2E"/>
<path d="M221.162 96.0345C221.244 96.4831 221.393 96.9266 221.403 97.3751C221.531 103.008 221.265 108.62 220.451 114.202C218.306 128.975 213.474 142.891 206.891 156.241C205.996 158.056 205.115 159.881 204.23 161.706C202.09 156.4 200.606 150.95 200.038 145.231C199.403 138.889 199.95 132.543 199.664 126.212C199.449 121.446 199.029 116.69 197.801 112.051C197.483 110.853 197.038 109.691 196.649 108.508C197.033 108.437 197.437 108.427 197.796 108.289C200.785 107.157 202.935 104.935 204.972 102.615C205.765 101.708 205.648 101.321 204.655 100.546C203.984 100.021 203.313 99.4906 202.592 99.042C199.029 96.8297 195.482 94.5868 191.858 92.4764C190.348 91.5945 188.838 90.5954 187.021 90.3609L187.046 90.2437C187.057 90.05 187.067 89.8512 187.077 89.6575C187.476 89.5249 187.778 89.2955 187.87 88.8623C188.577 88.2302 189.012 87.3993 189.278 86.5378C189.626 85.4265 190.189 85.5132 191.039 85.9159C192.109 86.4256 193.255 86.7111 194.412 86.9711C197.862 87.7459 201.327 87.6337 204.808 87.2565C208.284 87.282 211.759 87.3024 215.235 87.3381C217.257 87.3585 217.257 87.4145 217.467 89.4179C217.753 92.1349 218.91 94.3931 221.157 96.0396L221.162 96.0345Z" fill="#EC8728"/>
<path d="M196.992 189.253C196.383 190.247 195.431 190.93 194.663 191.776C194.085 192.408 193.388 192.577 192.58 192.444C191.95 192.286 191.32 192.113 190.686 191.98C186.094 190.996 182.045 189.085 179.071 185.308C179.261 184.431 179.87 183.799 180.438 183.182C181.999 181.474 183.269 179.568 184.364 177.549C186.796 173.094 187.758 168.353 186.806 163.332C185.465 156.287 181.539 150.746 176.425 145.924C176.282 145.802 176.133 145.684 175.99 145.562C176.251 144.899 176.507 144.237 176.768 143.574C178.125 141.408 179.097 139.083 179.624 136.58C180.372 134.781 180.75 132.895 180.95 130.968C181.677 128.266 182.429 125.559 181.441 122.756C181.503 122.277 181.303 121.853 181.124 121.435C179.737 118.183 177.5 115.711 174.388 113.988C169.162 111.093 163.419 110.481 157.619 110.15C153.862 109.935 150.12 110.292 146.425 110.95C141.915 111.75 137.554 113.03 134.017 116.134C132.123 117.796 130.552 119.723 130.183 122.353C130.122 122.572 130.06 122.786 130.004 123.006C129.943 123.169 129.881 123.332 129.82 123.5H129.666C127.905 123.52 126.18 124.229 124.384 123.765C124.128 123.148 124.604 122.771 124.89 122.389C128.356 117.74 132.41 113.662 136.97 110.063C142.319 105.847 148.242 102.615 154.333 99.6435C155.367 99.1389 156.258 99.0981 157.317 99.6027C163.813 102.687 169.94 106.367 175.596 110.797C182.322 116.063 187.471 122.562 190.993 130.382C192.871 134.546 194.223 138.844 194.857 143.324C195.236 146.011 195.523 148.723 195.129 151.521C194.796 153.886 194.52 156.318 194.566 158.749C194.602 160.381 194.013 161.986 194.213 163.633C194.571 166.554 194.494 169.5 194.873 172.421C195.257 175.398 195.405 178.411 195.799 181.388C196.153 184.023 196.152 186.715 196.997 189.279L196.992 189.253Z" fill="#F0AC49"/>
<path d="M180.945 130.963C180.745 132.89 180.366 134.776 179.614 136.575C179.471 136.121 179.199 135.974 178.718 136.127C177.971 136.366 177.213 136.59 176.446 136.769C175.314 137.034 174.209 136.861 173.175 136.371C171.46 135.556 171.158 134.597 172.177 132.997C172.878 131.896 172.98 130.851 172.402 129.663C171.685 128.19 170.457 127.624 168.936 127.44C166.546 127.15 164.529 128.062 162.748 129.495C160.644 131.187 160.04 134.796 161.494 136.993C162.323 138.247 163.393 139.364 164.734 140.103C168.476 142.157 172.494 143.284 176.753 143.569C176.492 144.232 176.236 144.894 175.975 145.557C175.888 145.674 175.806 145.792 175.719 145.909C174.961 146.378 174.762 147.244 174.301 147.922C173.472 149.151 172.576 150.293 171.23 151.006C170.835 150.354 170.175 150.349 169.515 150.247C167.406 149.921 165.481 149.146 163.813 147.774C161.069 145.516 159.093 142.718 157.808 139.425C157.179 137.814 156.595 136.188 155.991 134.562C155.408 134.791 155.5 135.245 155.387 135.596C154.727 137.722 154.046 139.832 152.976 141.81C150.729 145.96 147.592 149.028 142.888 150.242C142.355 150.379 141.889 150.558 141.608 151.052C140.436 150.649 139.694 149.727 138.956 148.819C138.178 147.861 137.441 146.867 136.689 145.888C136.131 144.981 135.573 144.079 135.015 143.171C136.673 143.365 138.301 142.993 139.903 142.723C143.722 142.081 147.274 140.791 149.967 137.804C151.902 135.653 151.85 133.063 150.351 130.947C148.569 128.439 146.025 127.211 142.862 127.435C139.734 127.66 138.306 130.351 139.909 133.037C140.799 134.526 140.436 135.653 138.788 136.28C137.078 136.927 135.358 137.11 133.628 136.254C132.87 135.882 132.149 135.382 131.258 135.336C130.669 134.118 130.695 132.762 130.367 131.483C130.388 131.427 130.444 131.355 130.429 131.309C130.393 131.197 130.326 131.09 130.27 130.983C130.25 130.601 130.229 130.219 130.209 129.836C131.545 128.903 132.471 127.486 133.966 126.732C135.491 125.962 136.976 125.121 138.48 124.305C139.397 124.285 140.323 124.326 141.234 124.234C145.14 123.831 149.056 123.612 152.982 123.515C155.413 123.454 157.819 123.791 160.235 123.852C163.843 123.943 167.416 124.249 170.994 124.693C172.299 124.856 173.513 125.427 174.843 125.442C177.198 126.931 179.302 128.699 180.94 130.968L180.945 130.963Z" fill="#522931"/>
<path d="M136.709 145.888C137.462 146.867 138.199 147.861 138.977 148.819C139.714 149.732 140.456 150.649 141.628 151.052C143.062 152.031 144.741 152.434 146.332 153.04C148.247 153.769 150.11 154.59 151.687 155.92C153.437 157.399 154.348 159.254 154.353 161.589C154.364 165.009 152.946 167.792 150.714 170.26C148.385 172.834 145.385 174.506 142.488 176.31C140.446 177.35 138.434 178.431 136.909 180.205C135.803 181.347 135.276 182.932 134.002 183.941C131.724 180.654 130.459 176.958 129.794 173.063C128.258 164.061 130.383 155.829 135.23 148.198C135.721 147.423 136.213 146.653 136.704 145.883L136.709 145.888Z" fill="#C86B2E"/>
<path d="M112.068 185.69C111.474 184.472 110.742 183.35 109.724 182.433C109.621 181.765 109.268 181.209 108.925 180.654C108.157 179.42 107.62 178.084 107.082 176.749C106.105 174.317 105.608 171.881 106.745 169.327C107.082 168.567 107.134 167.68 107.318 166.849C108.772 163.332 109.417 159.626 109.908 155.885C109.934 153.53 110.64 151.2 110.353 148.85C110.082 146.627 110.026 144.42 110.031 142.193C110.036 139.053 110.604 135.938 110.445 132.788C110.415 132.201 110.563 131.62 110.927 131.105C111.536 131.202 111.469 131.758 111.659 132.13C112.672 134.189 113.568 136.315 114.725 138.288C115.866 140.23 116.68 142.188 117.033 144.456C117.565 147.876 118.528 151.225 119.203 154.626C120.376 160.544 120.212 166.457 118.907 172.339C117.811 177.264 116.332 182.086 114.771 186.883C114.423 187.943 114.105 188.004 113.322 187.199C112.867 186.73 112.657 186.057 112.073 185.695L112.068 185.69Z" fill="#FDDE8A"/>
<path d="M132.983 79.4573C131.77 81.2006 130.552 82.9338 129.354 84.6873C128.888 85.3755 128.294 85.9923 128.064 86.8232C126.81 87.9803 126.011 89.479 124.998 90.8146C124.89 90.8044 124.778 90.8095 124.67 90.8146C124.634 90.6871 124.624 90.5597 124.645 90.4272C124.281 85.5386 124.251 80.6195 123.437 75.7666C123.14 74.0131 122.751 72.3003 121.86 70.7354C122.766 70.6691 123.411 70.0982 124.097 69.6037C125.479 68.5995 125.52 68.3752 124.496 66.9887C123.954 66.2495 123.288 65.6276 122.531 65.0975C120.575 63.7314 118.395 62.9361 116.066 62.4315C113.522 61.881 111.003 62.1205 108.475 62.4366L108.444 61.6974C109.023 61.6974 109.396 61.3202 109.806 60.9889C112.913 58.4809 116.015 55.9729 119.117 53.47C120.667 52.216 121.947 52.1752 123.575 52.9399C129.349 55.662 132.451 60.1376 132.486 66.535C132.512 70.8475 132.589 75.1498 132.983 79.4471V79.4573Z" fill="#A14A31"/>
<path d="M187.077 89.6523C187.067 89.846 187.057 90.0448 187.046 90.2386C185.946 89.27 185.429 87.8172 184.277 86.8946C182.982 84.6975 181.175 82.8471 179.957 80.594C179.89 80.2066 179.88 79.8039 179.752 79.442C178.524 75.9247 178.176 72.2952 178.37 68.6046C178.539 65.3014 179.143 62.0594 180.72 59.1487C182.501 55.8659 184.897 53.2202 189.14 53.3528C189.396 53.363 189.657 53.2712 189.918 53.2253C190.42 53.2763 190.921 53.3222 191.423 53.3732C194.561 54.9789 197.494 56.8701 200.007 59.3628C200.217 59.5718 200.585 59.6227 200.882 59.7502H200.887C201.005 59.8878 201.123 60.0204 201.235 60.158C201.235 60.158 201.256 60.1886 201.261 60.1886C201.363 60.3109 201.466 60.4333 201.568 60.5607C201.752 60.8003 201.937 61.0399 202.121 61.2845C201.819 61.57 201.44 61.6924 201.041 61.6771C199.72 61.621 198.435 61.9217 197.145 62.1154C194.74 62.4825 192.344 62.9922 190.266 64.2921C188.572 65.3524 186.816 66.4534 186.319 68.6352C185.782 69.3234 185.89 70.1339 185.93 70.9087C186.186 75.4149 186.463 79.916 186.76 84.4223C186.78 84.7281 186.98 85.0238 187.098 85.3296C187.118 86.497 187.133 87.6643 187.154 88.8316C187.128 89.1069 187.108 89.3873 187.082 89.6625L187.077 89.6523Z" fill="#A14A31"/>
<path d="M124.665 90.8197C124.773 90.8095 124.885 90.8095 124.993 90.8197C124.148 92.5171 123.339 94.2299 122.459 95.907C120.35 99.9086 118.21 103.89 116.081 107.881C115.288 109.364 115.18 109.4 113.691 108.585C111.06 107.137 108.843 105.179 107.031 102.829C106.192 101.744 105.301 101.443 104.027 101.412C100.812 101.331 97.6027 101.117 94.3933 100.954C94.7567 98.7514 95.7805 96.9979 97.8228 95.9274C98.0839 95.9274 98.3552 95.958 98.6111 95.907C103.883 94.8467 109.156 93.7864 114.423 92.7108C117.827 92.0176 121.215 91.2377 124.67 90.8248L124.665 90.8197Z" fill="#F0AC49"/>
<path d="M131.268 135.331C132.159 135.377 132.881 135.877 133.638 136.249C135.363 137.1 137.088 136.922 138.798 136.274C140.446 135.647 140.809 134.526 139.919 133.032C138.317 130.346 139.75 127.654 142.872 127.43C146.036 127.206 148.58 128.434 150.361 130.942C151.861 133.058 151.917 135.647 149.977 137.799C147.29 140.786 143.732 142.075 139.914 142.718C138.311 142.988 136.689 143.365 135.025 143.166C133.28 140.786 131.77 138.293 131.258 135.326L131.268 135.331Z" fill="#2D1D24"/>
<path d="M187.021 90.3609C188.838 90.5954 190.348 91.5945 191.858 92.4764C195.482 94.5868 199.029 96.8297 202.592 99.042C203.313 99.4906 203.989 100.021 204.655 100.546C205.648 101.326 205.765 101.708 204.972 102.615C202.935 104.94 200.785 107.157 197.796 108.289C197.437 108.427 197.033 108.437 196.649 108.508C193.639 102.942 190.624 97.3751 187.62 91.7984C187.374 91.3447 187.215 90.8401 187.016 90.3609H187.021Z" fill="#C86B2E"/>
<path d="M97.8177 95.9223C95.7753 96.9877 94.7516 98.7463 94.3882 100.948C93.9377 102.498 93.7944 104.083 93.7176 105.689C93.6869 106.388 93.7227 107.101 93.4105 107.764C92.3919 107.116 92.0848 105.995 91.6804 104.996C90.0219 100.887 88.4403 96.7532 87.2835 92.4662C86.8433 90.8248 86.8074 90.7993 88.2202 89.8817C88.773 89.5249 89.0494 89.0865 89.1108 88.4646C89.4896 88.8673 89.8991 88.8673 90.3035 88.5156C91.0815 87.8376 91.8442 87.1443 92.612 86.4562C92.8833 86.7314 93.1546 87.0067 93.4207 87.282C93.4873 88.2811 93.9889 89.1375 94.3677 90.0346C95.2686 92.1399 96.6609 93.9597 97.8126 95.9223H97.8177Z" fill="#A14A31"/>
<path d="M138.486 124.305C136.981 125.116 135.496 125.962 133.971 126.727C132.476 127.481 131.55 128.898 130.214 129.831C129.446 127.767 129.794 125.6 129.651 123.48H129.804C129.866 123.316 129.927 123.153 129.989 122.985C130.05 122.766 130.111 122.552 130.168 122.333C130.49 122.246 130.746 122.062 130.976 121.818C134.928 117.592 140.031 115.92 145.601 115.267C145.508 115.813 145.171 116.211 144.792 116.583C142.406 118.927 140.579 121.721 138.486 124.305Z" fill="#A14A31"/>
<path d="M134.007 183.947C135.281 182.937 135.808 181.352 136.914 180.21C137.37 180.766 137.283 181.428 137.288 182.071C137.303 183.365 137.247 184.665 137.318 185.955C137.405 187.5 137.508 189.054 138.347 190.436C138.378 190.686 138.409 190.94 138.439 191.19C133.725 193.367 128.709 193.387 123.682 193.137C122.669 193.086 121.435 193.204 120.698 192.123C125.182 190.976 129.4 189.33 132.63 185.822C133.157 185.246 133.751 184.716 134.002 183.947H134.007Z" fill="#522931"/>
<path d="M120.703 192.128C121.435 193.209 122.669 193.092 123.688 193.143C128.714 193.392 133.73 193.367 138.445 191.195C139.381 192.755 140.6 194.024 142.207 194.917C142.473 195.064 142.652 195.36 142.872 195.589C139.105 196.95 135.205 197.149 131.248 196.945C128.008 196.777 124.89 196.084 121.86 194.967C121.031 194.172 119.813 193.861 119.106 192.898C119.511 192.205 120.227 192.429 120.703 192.128Z" fill="#7B3835"/>
<path d="M110.778 210.128C109.795 210.051 109.499 209.292 109.191 208.542C110.133 208.665 110.635 209.21 110.778 210.128Z" fill="#FDDE8A"/>
<path d="M93.6921 110.761C93.3748 110.195 93.4106 109.609 93.5693 109.013C93.8457 109.579 93.8201 110.165 93.6921 110.761Z" fill="#C86B2E"/>
<path d="M121.471 220.761C120.98 220.71 120.683 220.465 120.657 219.956C121.031 220.124 121.302 220.394 121.471 220.761Z" fill="#FDDE8A"/>
<path d="M109.207 208.557C109.079 208.517 108.951 208.476 108.823 208.43C108.884 208.338 108.956 208.165 109.007 208.17C109.232 208.19 109.186 208.399 109.207 208.557Z" fill="#FDDE8A"/>
<path d="M111.582 211.483C111.326 211.208 110.988 210.974 111.172 210.515C111.526 210.749 111.587 211.101 111.582 211.483Z" fill="#FDDE8A"/>
<path d="M119.895 219.181C119.521 219.252 119.275 219.064 119.086 218.773C119.413 218.804 119.69 218.926 119.895 219.181Z" fill="#FDDE8A"/>
<path d="M130.28 130.983C130.337 131.09 130.403 131.197 130.439 131.309C130.454 131.355 130.398 131.427 130.378 131.483C130.326 131.376 130.265 131.269 130.229 131.156C130.214 131.106 130.26 131.039 130.275 130.983H130.28Z" fill="#A14A31"/>
<path d="M111.177 210.52C110.855 210.576 110.737 210.433 110.778 210.122C110.911 210.255 111.044 210.388 111.177 210.52Z" fill="#FDDE8A"/>
<path d="M114.75 214.629C114.556 214.435 114.361 214.241 114.162 214.042C114.356 214.236 114.551 214.43 114.75 214.629Z" fill="#FDDE8A"/>
<path d="M116.332 216.03C116.107 215.985 115.969 215.847 115.922 215.623C116.061 215.76 116.194 215.893 116.332 216.03Z" fill="#FDDE8A"/>
<path d="M116.726 216.423C116.506 216.372 116.368 216.234 116.317 216.015C116.455 216.153 116.593 216.29 116.726 216.423Z" fill="#FDDE8A"/>
<path d="M117.125 216.816C116.905 216.759 116.767 216.627 116.711 216.403C116.849 216.54 116.987 216.678 117.125 216.816Z" fill="#FDDE8A"/>
<path d="M117.519 217.208C117.304 217.147 117.166 217.014 117.105 216.795C117.243 216.933 117.381 217.07 117.519 217.208Z" fill="#FDDE8A"/>
<path d="M117.909 217.702C117.775 217.529 117.642 217.361 117.504 217.188C117.637 217.361 117.77 217.529 117.909 217.702Z" fill="#FDDE8A"/>
<path d="M118.712 218.391C118.543 218.253 118.374 218.12 118.21 217.983C118.379 218.12 118.548 218.253 118.712 218.391Z" fill="#FDDE8A"/>
<path d="M120.284 219.573C120.022 219.558 119.874 219.425 119.869 219.16C120.007 219.298 120.145 219.436 120.284 219.573Z" fill="#FDDE8A"/>
<path d="M120.683 219.966C120.422 219.95 120.284 219.813 120.268 219.553C120.406 219.69 120.545 219.828 120.683 219.966Z" fill="#FDDE8A"/>
<path d="M115.938 215.633C115.713 215.587 115.574 215.454 115.528 215.225C115.667 215.363 115.8 215.495 115.938 215.633Z" fill="#FDDE8A"/>
<path d="M121.865 221.342C121.65 221.189 121.481 221.006 121.451 220.73C121.589 220.934 121.727 221.138 121.865 221.342Z" fill="#FDDE8A"/>
<path d="M142.867 195.589C142.647 195.36 142.468 195.059 142.202 194.917C140.589 194.024 139.371 192.755 138.439 191.195C138.409 190.94 138.378 190.691 138.347 190.441C138.491 188.065 139.448 186.006 140.963 184.222C143.072 181.734 145.585 179.787 148.805 178.9C149.05 178.982 149.306 179.048 149.542 179.155C153.882 181.102 158.228 181.168 162.584 179.216C163.065 179.002 163.567 178.869 164.099 178.895C164.632 179.614 165.492 179.828 166.229 180.21C169.116 181.704 171.148 183.967 172.468 186.913C172.919 187.923 172.939 189.07 173.523 190.028C173.492 190.283 173.466 190.543 173.436 190.798C172.74 192.123 171.864 193.316 170.743 194.325C170.272 194.748 169.704 195.136 169.72 195.89C167.749 195.248 166.346 196.619 164.852 197.414C164.171 197.776 164.447 198.898 164.586 199.637C165.041 202.038 164.882 204.454 164.929 206.87C165.092 214.731 163.111 222.122 160.04 229.284C158.981 231.751 157.86 234.178 156.442 236.467C156.058 237.083 155.725 237.715 155.05 238.072C152.224 232.246 150.479 226.134 149.828 219.68C149.306 214.501 149.501 209.373 150.212 204.24C150.32 203.455 150.315 202.675 150.202 201.895C151.431 198.903 150.98 197.99 147.899 197.297C147.402 197.185 146.875 197.18 146.363 197.124C145.293 196.4 144.29 195.518 142.862 195.595L142.867 195.589Z" fill="#A14A31"/>
<path d="M146.368 197.119C146.88 197.175 147.402 197.18 147.904 197.292C150.985 197.985 151.436 198.898 150.207 201.89C149.578 201.762 149.168 201.344 148.851 200.835C148.052 199.576 146.849 198.582 146.373 197.114L146.368 197.119Z" fill="#C86B2E"/>
<path d="M125.955 224.936C125.981 225.033 126.006 225.124 126.032 225.221C125.94 225.191 125.848 225.165 125.755 225.135C125.822 225.068 125.883 225.002 125.955 224.936Z" fill="#FCC963"/>
<path d="M172.95 254.7C172.709 254.833 172.601 254.833 172.791 254.542C172.847 254.593 172.898 254.649 172.95 254.7Z" fill="#F0AC49"/>
<path d="M173.436 190.798C173.467 190.543 173.492 190.283 173.523 190.028C173.83 189.748 173.958 189.396 173.994 188.988C174.209 186.658 174.526 184.334 174.424 181.984C174.393 181.214 174.301 180.409 174.828 179.726C175.872 180.924 176.533 182.433 177.817 183.442C178.048 184.186 178.478 184.803 179.071 185.308C182.045 189.085 186.094 190.996 190.686 191.98C191.32 192.118 191.95 192.291 192.58 192.444C189.713 193.107 186.79 193.382 183.873 193.148C181.411 192.949 178.943 192.653 176.543 191.98C175.468 191.68 174.444 191.256 173.436 190.793V190.798Z" fill="#522931"/>
<path d="M132.983 79.4572C132.589 75.16 132.507 70.8577 132.486 66.5452C132.451 60.1478 129.349 55.6721 123.575 52.9501C121.947 52.1803 120.673 52.2262 119.116 53.4802C116.015 55.9882 112.908 58.4962 109.806 60.9991C109.396 61.3304 109.022 61.7076 108.444 61.7076C108.398 61.2947 108.587 60.943 108.756 60.5913C110.911 56.1768 113.087 51.7725 115.201 47.3377C115.733 46.2264 116.45 45.6759 117.699 45.4567C121.645 44.7634 125.592 44.1415 129.599 43.9325C130.449 43.8866 131.289 43.7031 132.133 43.5859C135 45.0744 137.738 46.7107 139.944 49.1371C143.686 53.261 145.017 57.8896 143.282 63.2879C142.529 65.6225 141.352 67.738 140.016 69.7617C137.82 73.0955 135.588 76.4089 132.983 79.4572Z" fill="#C86B2E"/>
<path d="M186.319 68.6301C186.816 66.4483 188.572 65.3422 190.266 64.287C192.349 62.9871 194.74 62.4722 197.145 62.1103C198.435 61.9115 199.72 61.6159 201.041 61.6719C201.44 61.6872 201.819 61.5649 202.121 61.2794C203.063 62.0899 204.051 62.8342 205.115 63.4867C212.184 67.8196 215.982 74.2119 217.103 82.3119C217.226 83.2039 217.236 84.1419 217.85 84.8963C217.625 86.4001 218.178 87.6847 218.92 88.9387C219.99 90.7381 220.707 92.6751 221.172 94.7091C221.275 95.1576 221.367 95.596 221.162 96.0395C218.92 94.393 217.758 92.1297 217.472 89.4178C217.262 87.4145 217.257 87.3584 215.24 87.338C211.764 87.3023 208.289 87.282 204.813 87.2565C205.903 85.9566 207.229 84.8453 207.966 83.26C208.253 82.6381 208.412 82.0978 207.966 81.4351C205.765 78.1727 203.667 74.8491 200.897 72.0046C197.939 68.9665 193.286 67.9929 189.488 70.9444L186.33 68.6352L186.319 68.6301Z" fill="#C86B2E"/>
<path d="M189.918 53.2203C189.657 53.2661 189.401 53.3579 189.14 53.3477C184.902 53.2152 182.501 55.8608 180.72 59.1436C179.143 62.0543 178.539 65.2963 178.37 68.5995C178.181 72.2902 178.524 75.9196 179.752 79.4369C179.88 79.7988 179.89 80.2066 179.957 80.5889C179.527 80.385 179.24 80.0282 178.964 79.6561C176.702 76.6078 174.429 73.5645 172.182 70.5009C170.784 68.5944 169.689 66.5095 168.635 64.3941C167.171 61.4579 167.058 58.3586 167.375 55.1981C167.442 54.5558 167.631 53.9135 168.046 53.3783C168.635 53.3528 169.228 53.3528 169.812 53.2865C171.639 53.0877 173.456 52.7207 175.284 52.685C179.624 52.5933 183.97 52.6493 188.311 52.6493C188.91 52.6493 189.508 52.6493 189.913 53.2101L189.918 53.2203Z" fill="#C86B2E"/>
<path d="M189.918 53.2203C189.519 52.6595 188.915 52.6595 188.316 52.6595C183.975 52.6595 179.629 52.6035 175.289 52.6952C173.461 52.736 171.644 53.103 169.817 53.2967C169.233 53.3579 168.64 53.3579 168.051 53.3885C168.118 52.369 168.599 51.5075 169.146 50.6919C171.506 47.1593 174.705 44.6564 178.652 43.0813C179.153 42.8825 179.66 42.8009 180.193 42.8876C184.328 43.591 188.434 44.4321 192.406 45.8237C193.107 46.0684 193.737 46.3641 194.12 47.037C195.441 49.3665 196.828 51.6604 197.796 54.1684C197.279 54.0868 196.767 53.99 196.245 53.9339C194.637 53.7555 193.092 53.0724 191.428 53.3681C190.926 53.3171 190.425 53.2712 189.923 53.2203H189.918Z" fill="#EC8728"/>
<path d="M191.423 53.3681C193.086 53.0724 194.632 53.7606 196.24 53.9339C196.757 53.99 197.273 54.0919 197.79 54.1684C199.045 55.9067 200.222 57.6806 200.882 59.7451C200.585 59.6228 200.217 59.5667 200.007 59.3577C197.494 56.8599 194.561 54.9738 191.423 53.3681Z" fill="#C86B2E"/>
<path d="M200.857 35.3534C200.606 35.1342 200.498 34.8589 200.508 34.5276C200.795 34.6805 200.928 34.9354 201.01 35.2259L200.862 35.3483L200.857 35.3534Z" fill="#C86B2E"/>
<path d="M200.514 34.5282C200.468 34.5077 200.386 34.4821 200.386 34.4719C200.406 34.3643 200.452 34.3848 200.509 34.5282H200.514Z" fill="#C86B2E"/>
<path d="M201.24 60.1478C201.123 60.0102 201.005 59.8776 200.892 59.74C201.097 59.8012 201.21 59.9388 201.24 60.1478Z" fill="#C86B2E"/>
<path d="M201.568 60.5505C201.466 60.4282 201.363 60.3058 201.261 60.1784C201.363 60.3007 201.466 60.4231 201.568 60.5505Z" fill="#C86B2E"/>
<path d="M90.2523 66.3923C90.1806 66.7134 90.0475 66.9989 89.7814 67.2079C89.8684 66.8969 89.981 66.6013 90.2523 66.3923Z" fill="#FDDE8A"/>
<path d="M91.0355 65.2045C90.9894 65.5257 90.8665 65.806 90.6208 66.0303C90.5901 65.6735 90.6976 65.3829 91.0355 65.2045Z" fill="#FDDE8A"/>
<path d="M91.8187 64.027C91.7931 64.3533 91.6702 64.6336 91.4092 64.8426C91.3017 64.4501 91.4245 64.1749 91.8187 64.027Z" fill="#FDDE8A"/>
<path d="M100.991 42.0821C100.904 42.1484 100.776 42.2911 100.746 42.2707C100.531 42.1331 100.643 41.9955 100.776 41.868C100.848 41.9394 100.92 42.0108 100.991 42.0821Z" fill="#FDDE8A"/>
<path d="M98.1607 46.7417L98.2377 46.6546L98.1504 46.7263L98.1607 46.7417Z" fill="#A14A31"/>
<path d="M90.6515 65.9947C90.5133 66.1374 90.37 66.2802 90.2318 66.4229C90.2881 66.1986 90.3905 66.0202 90.6515 65.9947Z" fill="#FDDE8A"/>
<path d="M91.4347 64.8171C91.2965 64.9599 91.1532 65.0975 91.015 65.2402C91.0508 64.9955 91.1379 64.8018 91.4347 64.8171Z" fill="#FDDE8A"/>
<path d="M93.4208 87.282C93.1495 87.0067 92.8782 86.7315 92.6121 86.4562C93.2161 85.141 93.5181 83.7341 93.7791 82.3221C94.1374 80.3952 94.6646 78.5142 95.2687 76.6485C96.7991 71.9333 99.7782 68.3243 103.714 65.4034C105.081 64.3941 106.642 63.6651 107.866 62.4621C108.065 62.4519 108.27 62.4417 108.47 62.4366C110.998 62.1206 113.512 61.8759 116.061 62.4315C118.39 62.9362 120.57 63.7314 122.526 65.0975C123.283 65.6226 123.949 66.2496 124.491 66.9887C125.515 68.3803 125.474 68.5995 124.092 69.6037C123.411 70.0982 122.761 70.6742 121.855 70.7354C120.657 69.7108 119.25 69.2775 117.699 69.1704C116.143 69.0634 114.72 69.5273 113.291 70.0268C111.582 70.0115 109.872 69.9759 108.157 69.9911C106.617 70.0013 105.465 70.6334 104.467 71.8823C100.679 76.6332 98.0481 82.0774 94.9411 87.2361C94.4343 87.2463 93.9224 87.2616 93.4157 87.2718L93.4208 87.282Z" fill="#EC8728"/>
<path d="M108.475 62.4417C108.275 62.4519 108.075 62.462 107.871 62.4671C108.004 62.1715 108.111 61.8503 108.444 61.7025C108.454 61.9472 108.464 62.197 108.475 62.4417Z" fill="#C86B2E"/>
<path d="M189.478 70.9393C193.276 67.9878 197.929 68.9614 200.887 71.9996C203.656 74.844 205.755 78.1676 207.956 81.43C208.401 82.0927 208.248 82.633 207.956 83.2549C207.219 84.8352 205.893 85.9464 204.803 87.2514C201.327 87.6286 197.862 87.7408 194.407 86.9659C193.25 86.706 192.098 86.4205 191.034 85.9107C190.184 85.508 189.621 85.4214 189.273 86.5326C189.007 87.3941 188.572 88.225 187.865 88.8571C187.625 88.8469 187.384 88.8316 187.144 88.8214C187.123 87.6541 187.108 86.4868 187.087 85.3194C187.753 83.3824 187.589 81.3383 187.809 79.3502C188.126 76.4905 188.418 73.6461 189.473 70.9393H189.478ZM189.887 78.5091C189.718 79.7835 190.251 80.7622 191.105 81.6747C193.199 83.9227 195.815 84.1317 198.538 83.4639C200.549 82.9695 201.578 81.4657 201.711 79.6816C201.87 77.5865 200.529 76.6332 198.927 75.8635C198.041 75.4404 197.125 75.0632 196.101 75.1295C195.118 75.1193 194.131 75.0224 193.158 75.1193C191.013 75.3385 190.056 76.3834 189.887 78.504V78.5091Z" fill="#2D1D24"/>
<path d="M187.149 88.8214C187.389 88.8316 187.63 88.8469 187.87 88.8571C187.778 89.2904 187.476 89.5198 187.077 89.6523C187.103 89.377 187.123 89.0967 187.149 88.8214Z" fill="#522931"/>
<path d="M145.601 115.273C140.037 115.925 134.928 117.597 130.976 121.823C130.746 122.068 130.49 122.251 130.168 122.338C130.536 119.707 132.108 117.781 134.002 116.119C137.539 113.019 141.9 111.74 146.409 110.935C150.105 110.277 153.847 109.92 157.604 110.134C163.403 110.471 169.146 111.082 174.373 113.973C177.49 115.696 179.722 118.168 181.109 121.42C181.288 121.843 181.487 122.261 181.426 122.74C180.766 122.491 180.484 121.854 180.039 121.385C176.031 117.138 170.805 115.701 165.251 115.008C165.026 114.997 164.796 114.992 164.57 114.982C164.422 115.048 164.268 115.115 164.12 115.176C163.608 115.069 163.096 114.946 162.579 114.865C157.22 114.044 151.871 114.712 146.517 114.951C146.205 114.967 145.903 115.155 145.59 115.262L145.601 115.273Z" fill="#C86B2E"/>
<path d="M176.758 143.569C172.499 143.284 168.476 142.157 164.739 140.103C163.393 139.364 162.328 138.247 161.499 136.993C160.045 134.796 160.644 131.187 162.753 129.495C164.534 128.062 166.551 127.15 168.942 127.44C170.462 127.624 171.69 128.19 172.407 129.663C172.985 130.851 172.883 131.896 172.182 132.997C171.163 134.592 171.465 135.556 173.18 136.371C174.214 136.861 175.319 137.034 176.451 136.769C177.218 136.59 177.976 136.366 178.723 136.127C179.205 135.974 179.471 136.121 179.619 136.575C179.092 139.078 178.119 141.403 176.763 143.569H176.758Z" fill="#2D1D24"/>
<path d="M179.066 185.308C178.473 184.803 178.048 184.186 177.812 183.442C180.96 178.207 182.394 172.564 182.409 166.437C182.429 159.963 180.735 154.05 177.526 148.493C177.07 147.703 176.451 146.995 176.261 146.067C176.313 146.021 176.359 145.97 176.41 145.919C181.523 150.746 185.449 156.287 186.79 163.332C187.748 168.358 186.78 173.094 184.349 177.549C183.248 179.563 181.984 181.469 180.423 183.182C179.86 183.799 179.246 184.431 179.056 185.308H179.066Z" fill="#C86B2E"/>
<path d="M165.261 115.018C170.815 115.711 176.036 117.148 180.049 121.395C180.489 121.864 180.776 122.501 181.436 122.751C182.424 125.554 181.672 128.261 180.945 130.963C179.307 128.694 177.203 126.926 174.849 125.437C174.726 124.586 174.055 124.122 173.508 123.576C171.209 121.272 168.896 118.984 166.592 116.679C166.091 116.175 165.522 115.716 165.261 115.018Z" fill="#A14A31"/>
<path d="M175.729 145.909C175.816 145.791 175.898 145.674 175.985 145.557C176.128 145.679 176.277 145.797 176.42 145.919C176.369 145.97 176.323 146.016 176.272 146.062C176.092 146.011 175.908 145.96 175.729 145.904V145.909Z" fill="#C86B2E"/>
<path d="M175.729 145.909C175.908 145.96 176.092 146.011 176.272 146.067C176.461 146.995 177.08 147.708 177.536 148.493C180.745 154.05 182.44 159.963 182.419 166.437C182.399 172.559 180.971 178.207 177.823 183.442C176.543 182.428 175.883 180.924 174.833 179.726C173.262 178.548 171.957 176.999 170.063 176.265C167.585 174.914 165.087 173.599 162.861 171.84C160.015 169.592 158.198 166.747 157.619 163.138C157.138 160.131 158.105 157.735 160.547 155.925C161.98 154.86 163.577 154.116 165.246 153.479C167.268 152.709 169.372 152.138 171.245 151.011C172.586 150.298 173.482 149.156 174.316 147.927C174.777 147.249 174.977 146.383 175.734 145.914L175.729 145.909Z" fill="#A14A31"/>
<path d="M171.24 151.006C169.366 152.133 167.258 152.699 165.241 153.473C163.577 154.111 161.975 154.855 160.542 155.92C158.1 157.73 157.128 160.131 157.614 163.133C158.192 166.742 160.01 169.587 162.856 171.835C165.082 173.593 167.58 174.909 170.058 176.259C169.663 176.677 169.116 176.581 168.624 176.688C166.94 177.055 165.261 177.457 164.094 178.89C163.562 178.864 163.065 178.992 162.579 179.211C158.223 181.163 153.877 181.097 149.537 179.15C149.301 179.043 149.045 178.982 148.8 178.895C148.431 178.645 148.063 178.39 147.689 178.151C146.102 177.126 144.275 176.785 142.488 176.316C145.386 174.511 148.385 172.839 150.714 170.265C152.946 167.798 154.359 165.014 154.353 161.594C154.348 159.259 153.437 157.404 151.687 155.925C150.11 154.595 148.247 153.774 146.332 153.045C144.741 152.439 143.062 152.031 141.628 151.057C141.91 150.558 142.376 150.384 142.908 150.247C147.612 149.034 150.75 145.965 152.997 141.815C154.067 139.843 154.742 137.727 155.408 135.602C155.515 135.25 155.428 134.791 156.012 134.567C156.616 136.188 157.205 137.819 157.829 139.43C159.109 142.723 161.09 145.521 163.833 147.78C165.502 149.151 167.427 149.926 169.535 150.252C170.196 150.354 170.856 150.359 171.25 151.011L171.24 151.006Z" fill="#2D1D24"/>
<path d="M165.261 115.018C165.522 115.716 166.085 116.175 166.592 116.679C168.896 118.978 171.209 121.272 173.508 123.576C174.05 124.122 174.726 124.586 174.849 125.437C173.523 125.422 172.305 124.846 170.999 124.688C167.427 124.244 163.849 123.938 160.24 123.847C157.824 123.785 155.418 123.449 152.987 123.51C149.061 123.612 145.145 123.826 141.239 124.229C140.328 124.321 139.407 124.28 138.486 124.3C140.579 121.721 142.406 118.922 144.792 116.577C145.171 116.205 145.503 115.808 145.601 115.262C145.908 115.155 146.215 114.967 146.527 114.951C151.881 114.712 157.235 114.049 162.589 114.865C163.106 114.946 163.613 115.069 164.13 115.176C164.279 115.109 164.432 115.043 164.581 114.977C164.806 114.987 165.036 114.992 165.261 115.002V115.018Z" fill="#7B3835"/>
<path d="M142.493 176.316C144.28 176.785 146.107 177.126 147.694 178.151C148.068 178.39 148.436 178.645 148.805 178.895C145.585 179.787 143.072 181.729 140.963 184.217C139.448 186.001 138.491 188.06 138.347 190.436C137.508 189.054 137.4 187.5 137.318 185.955C137.247 184.665 137.303 183.365 137.288 182.071C137.283 181.428 137.37 180.766 136.914 180.21C138.439 178.436 140.456 177.355 142.493 176.316Z" fill="#7B3835"/>
<path d="M113.291 70.037C114.72 69.5375 116.143 69.0685 117.699 69.1806C119.25 69.2877 120.657 69.721 121.855 70.7456C122.746 72.3105 123.135 74.0233 123.432 75.7769C124.245 80.6297 124.281 85.5488 124.64 90.4374C123.227 89.4688 122.469 88.0313 121.875 86.5072C121.604 85.8088 121.302 85.6253 120.56 85.8955C116.102 87.5267 111.505 87.9141 106.816 87.2106C105.931 86.2574 104.974 85.3551 104.18 84.3356C102.86 82.6381 102.895 82.1743 104.139 80.3595C104.805 79.391 105.486 78.4378 106.161 77.4743C108.152 74.6299 110.338 71.9639 113.297 70.0421L113.291 70.037ZM116.491 75.4608C113.348 74.4107 110.486 76.0368 109.642 79.3451C109.657 80.7419 110.225 81.9092 111.305 82.735C113.419 84.3509 118.001 84.3764 120.079 81.2924C121.149 79.7071 120.842 77.6222 119.398 76.3733C118.548 75.6341 117.576 75.3945 116.486 75.4608H116.491Z" fill="#2D1D24"/>
<path d="M106.816 87.2055C111.51 87.909 116.102 87.5215 120.56 85.8903C121.302 85.6202 121.604 85.8037 121.875 86.502C122.469 88.0313 123.227 89.4688 124.64 90.4322C124.619 90.5648 124.629 90.6922 124.665 90.8197C121.21 91.2326 117.821 92.0125 114.418 92.7057C109.15 93.7813 103.878 94.8416 98.606 95.9019C98.3552 95.9529 98.0839 95.9172 97.8177 95.9223C96.666 93.9597 95.2737 92.1399 94.3729 90.0346C93.989 89.1426 93.4924 88.2862 93.4259 87.282C93.9327 87.2718 94.4445 87.2565 94.9513 87.2463C98.908 87.231 102.865 87.2157 106.821 87.2055H106.816Z" fill="#FCC963"/>
<path d="M189.478 70.9393C188.423 73.6461 188.137 76.4905 187.814 79.3502C187.594 81.3383 187.753 83.3824 187.092 85.3194C186.975 85.0187 186.775 84.723 186.755 84.4121C186.463 79.9109 186.181 75.4047 185.925 70.8985C185.884 70.1288 185.777 69.3132 186.314 68.625C187.369 69.3947 188.418 70.1645 189.473 70.9342L189.478 70.9393Z" fill="#522931"/>
<path d="M164.099 178.89C165.266 177.452 166.945 177.055 168.629 176.688C169.121 176.581 169.663 176.678 170.063 176.26C171.957 176.999 173.262 178.543 174.833 179.721C174.306 180.404 174.393 181.209 174.429 181.979C174.531 184.329 174.214 186.653 173.999 188.983C173.963 189.391 173.835 189.743 173.528 190.023C172.939 189.065 172.924 187.918 172.474 186.908C171.153 183.962 169.126 181.704 166.234 180.205C165.492 179.823 164.637 179.609 164.104 178.89H164.099Z" fill="#7B3835"/>
<path d="M106.816 87.2055C102.86 87.2208 98.9029 87.2361 94.9462 87.2463C98.0481 82.0876 100.684 76.6383 104.467 71.8925C105.465 70.6436 106.617 70.0115 108.157 70.0013C109.867 69.9911 111.577 70.0217 113.291 70.037C110.333 71.9588 108.147 74.6248 106.156 77.4692C105.48 78.4326 104.8 79.3859 104.134 80.3544C102.89 82.164 102.855 82.6279 104.175 84.3305C104.969 85.3551 105.931 86.2523 106.811 87.2055H106.816Z" fill="#C86B2E"/>
<path d="M196.101 75.1346C197.125 75.0683 198.041 75.4455 198.927 75.8686C200.529 76.6383 201.87 77.5916 201.711 79.6867C201.578 81.4708 200.549 82.9746 198.538 83.469C195.815 84.1368 193.199 83.9278 191.105 81.6798C190.256 80.7622 189.718 79.7886 189.892 78.5142C191.034 77.8261 192.216 77.4335 193.603 77.6425C196.255 78.0351 196.403 77.8464 196.106 75.1397L196.101 75.1346Z" fill="#522931"/>
<path d="M196.101 75.1345C196.398 77.8413 196.255 78.0299 193.598 77.6374C192.206 77.4335 191.029 77.8209 189.887 78.5091C190.056 76.3885 191.013 75.3435 193.158 75.1243C194.131 75.0275 195.118 75.1243 196.101 75.1345Z" fill="#F0AC49"/>
<path d="M116.491 75.4608C117.581 75.3945 118.553 75.6341 119.403 76.3733C120.847 77.6222 121.149 79.707 120.084 81.2924C118.006 84.3764 113.425 84.3458 111.311 82.735C110.231 81.9092 109.657 80.7367 109.647 79.3451C111.172 78.8099 112.6 78.0045 114.264 77.8362C116.322 77.6272 116.317 77.5763 116.496 75.4608H116.491Z" fill="#522931"/>
<path d="M116.491 75.4608C116.311 77.5763 116.317 77.6273 114.259 77.8363C112.595 78.0045 111.167 78.8048 109.642 79.3451C110.486 76.0368 113.348 74.4158 116.491 75.4608Z" fill="#FCC963"/>
</g>
<defs>
<clipPath id="clip0_62_572">
<rect width="267" height="306" fill="white" transform="translate(22 8)"/>
</clipPath>
</defs>
</svg>
